<?xml version="1.0" encoding="utf-8"?>
<!-- Generator: Adobe Illustrator 26.0.3, SVG Export Plug-In . SVG Version: 6.00 Build 0)  -->
<svg version="1.1" xmlns="http://www.w3.org/2000/svg" xmlns:xlink="http://www.w3.org/1999/xlink" x="0px" y="0px"
	 viewBox="0 0 780 1359" style="enable-background:new 0 0 780 1359;" xml:space="preserve">
<style type="text/css">
	.st0{clip-path:url(#SVGID_00000031190366836085350160000003399269252982202758_);}
	.st1{fill:url(#SVGID_00000085251993605906935650000009160413532689151399_);}
	.st2{fill:url(#SVGID_00000168076107318451666710000001031855505967100585_);}
	.st3{fill:url(#SVGID_00000116204788444922930070000015158906239991539377_);}
	.st4{display:none;fill-rule:evenodd;clip-rule:evenodd;fill:#FFFFFF;}
	.st5{display:none;fill:#FF58BE;}
	.st6{display:none;fill:#FDFDFD;}
	.st7{fill:#FAAF10;}
	.st8{fill:#2D2A96;}
	.st9{fill:#0169C5;}
	.st10{fill:#19D3F9;}
	.st11{fill:#04274B;}
	.st12{fill:#B13126;}
	.st13{fill:#F73B2C;}
	.st14{fill:#078DE4;}
	.st15{fill:#042343;}
	.st16{fill:#CD3628;}
	.st17{fill:#084778;}
	.st18{fill:#195C7F;}
	.st19{fill:#A86E17;}
	.st20{fill:#FCFCFC;}
	.st21{fill:#DD9812;}
</style>
<g id="Layer_1">
	<g>
		<defs>
			<rect id="SVGID_1_" width="780" height="1359"/>
		</defs>
		<clipPath id="SVGID_00000121248634362430701800000008748774713967922865_">
			<use xlink:href="#SVGID_1_"  style="overflow:visible;"/>
		</clipPath>
		<g style="clip-path:url(#SVGID_00000121248634362430701800000008748774713967922865_);">
			
				<linearGradient id="SVGID_00000168819153999885608860000009586330457626454967_" gradientUnits="userSpaceOnUse" x1="382.9634" y1="1367.3051" x2="396.9673" y2="0.4572" gradientTransform="matrix(1 0 0 -1 0 1360)">
				<stop  offset="0" style="stop-color:#654AEC"/>
				<stop  offset="1" style="stop-color:#4D4AEC;stop-opacity:0"/>
			</linearGradient>
			<rect style="fill:url(#SVGID_00000168819153999885608860000009586330457626454967_);" width="780" height="1359"/>
			
				<linearGradient id="SVGID_00000062887090611732300470000003301698161858643338_" gradientUnits="userSpaceOnUse" x1="67.3132" y1="352.0167" x2="54.3642" y2="627.3207" gradientTransform="matrix(0.7071 -0.7071 -0.7071 -0.7071 418.8286 468.0016)">
				<stop  offset="0" style="stop-color:#FFFFFF;stop-opacity:0.1"/>
				<stop  offset="1" style="stop-color:#FFFFFF;stop-opacity:0"/>
			</linearGradient>
			<polygon style="fill:url(#SVGID_00000062887090611732300470000003301698161858643338_);" points="-298.3,268.4 304.5,-334.4 
				512.1,-126.8 -90.7,476 			"/>
			
				<linearGradient id="SVGID_00000067227242503827328030000002935009894689404293_" gradientUnits="userSpaceOnUse" x1="975.3239" y1="250.6644" x2="128.8309" y2="258.8085" gradientTransform="matrix(0.7071 -0.7071 -0.7071 -0.7071 394.7676 910.7573)">
				<stop  offset="0" style="stop-color:#FFFFFF;stop-opacity:0"/>
				<stop  offset="1" style="stop-color:#FFFFFF;stop-opacity:0.2"/>
			</linearGradient>
			<polygon style="fill:url(#SVGID_00000067227242503827328030000002935009894689404293_);" points="224.1,518.9 779.4,-36.4 
				981.7,165.8 426.4,721.1 			"/>
			<path class="st4" d="M362,102h11v40h-11V102z M347,117h11v25h-11V117z M388,102h-11v40h11V102z"/>
			<rect x="347" y="102" class="st5" width="11" height="11"/>
			<path class="st4" d="M421,122c0,5-4,9-9,9s-9-4-9-9s4-9,9-9S421,117,421,122z M421,139.9c-2.7,1.4-5.8,2.1-9,2.1
				c-11,0-20-9-20-20s9-20,20-20s20,9,20,20h0v20h-11V139.9z"/>
		</g>
	</g>
	<g>
		<path class="st6" d="M381.8,224c-27.2,0-54.3,0-81.5,0c-0.8,0-1-0.1-1-0.8c0-47.5,0-95.1,0-142.6c0-0.7,0.2-0.8,1-0.8
			c54.3,0,108.6,0,162.9,0c0.8,0,1,0.1,1,0.8c0,47.5,0,95.1,0,142.6c0,0.7-0.2,0.8-1,0.8C436.1,224,408.9,224,381.8,224z
			 M380.8,88.1L380.8,88.1c-0.1,0.2,0,0.2,0.2,0.2l0,0c0,0.6,0.1,1.1,0.1,1.7c0,1.7-0.1,3.4,0.1,5.1c-0.5-0.1-0.8-0.4-1.1-0.7
			c-2.3-1.7-4.6-3.5-6.9-5.2c-1.4-1-2.6-1.1-4.1-0.1c-2.9,1.9-5.9,3.7-8.8,5.6c-0.9,0.6-1.3,1.3-1,2.3c0,0.1,0.1,0.2,0.1,0.3
			c0,0,0,0,0,0c0.1,0.7,0.8,0.9,1.3,1.3c0.5,0.4,1.1,0.7,1.3,1.3c0,1,0,2-0.1,3c-0.1,1,0.4,1.7,1.2,2.4c1.1,0.8,2.2,1.7,3.3,2.5
			c1.3,1,2.4,1,3.8,0l0,0.1l0.1,0c0,0.5-0.1,1-0.1,1.5c-0.1,0.3-0.1,0.6,0.1,0.9c0,0.7,0.3,1.1,0.9,1.5c0.1,0.1,0.2,0.1,0.3,0.2l0,0
			c0.1,0.1,0.2,0.1,0.3,0.2l0,0c0.1,0.1,0.2,0.1,0.2,0.2c0.1,0.1,0.2,0.1,0.3,0.2c0.2,0.2,0.4,0.4,0.7,0.5c0.2,0.2,0.5,0.4,0.7,0.6
			c1.6,1.2,3.2,2.5,4.9,3.7c1.3,1,2.1,1,3.4,0.2c1.6-1,3.2-2,4.8-3c0.8-0.5,1.2-1.3,1.2-2.2c0-3.6,0-7.2,0-10.7
			c0-0.1,0.1-0.3,0.1-0.4c1.7,1.2,3.4,2.4,5,3.7c1.8,1.6,2.6,1.7,4.7,0.5c1.6-0.9,3.1-1.9,4.6-2.9c1-0.6,1.3-1.3,1.3-2.3
			c0-3,0-6,0-8.9c0.5-0.9,0.4-1.7-0.5-2.4c-3.6-2.8-7.2-5.6-10.9-8.3c-1.2-0.9-2.3-1-3.6-0.2c-2.6,1.6-5.2,3.2-7.8,4.9
			c-1,0.7-1.1,1.6-0.4,2.6C380.6,88,380.6,88.1,380.8,88.1z M315.4,119.6L315.4,119.6c0,0.1,0,0.3,0.2,0.2l0,0
			c-0.1,0.2,0,0.3,0.2,0.2l0,0c0.2,1.9,0.1,3.8,0.1,5.6c0,0.9,0.3,1.6,1.1,2.2c3,2.2,6.1,4.5,9.1,6.7c-0.2,0.2-0.5,0.4-0.7,0.6
			c-3,1.9-6,3.7-9,5.6c-0.9,0.6-1.2,1.4-0.7,2.3c0,0.2,0,0.4,0.3,0.4l0,0c0,0.1,0.1,0.2,0.2,0.2l0,0c0,0.1,0.1,0.2,0.2,0.2l0,0
			c0.2,0.3,0.6,0.6,0.6,1.1c0,1,0.6,1.7,1.4,2.3c1.8,1.3,3.5,2.6,5.2,3.9c2.3,1.8,4.7,3.4,6.9,5.3c-1.1,0-2.1,0.2-3,0.8
			c-3.6,2.3-7.2,4.6-10.9,6.8c-0.9,0.5-1.3,1.2-1,2.2c0,0.2,0,0.3,0.2,0.4l0,0c0,0.1,0,0.2,0.2,0.2l0,0c0.2,1.4,0.1,2.9,0.1,4.3
			c0,1.1,0.4,2,1.4,2.7c2,1.4,3.9,2.9,5.8,4.3c1.6,1.2,2.5,1.2,4.2,0.1c0.8-0.6,1.7-1.1,2.7-1.8c0.1,0.5,0.1,0.8,0.1,1.1
			c-0.1,1.4-0.1,2.7,0,4.1c0,0.1,0,0.2,0,0.2c-0.1,0.5-0.1,1.1,0,1.6c0,0.7,0,1.4,0,2.1c-0.1,0.3-0.1,0.6,0,1c0,0.1,0.1,0.2,0.1,0.3
			c-0.1,0.1-0.1,0.2,0,0.3c0,0.4,0.3,0.7,0.7,0.9l0,0c2.7,2.3,5.8,4.3,8.6,6.4c1.5,1.1,2.6,1.1,4.2,0c0.5-0.4,1-0.8,1.6-1
			c0.1,0,0.2,0,0.3,0c-1.8,1.3-1.6,2.6-0.5,3.4c0.5,1.3,0.3,2.6,0.2,3.9c0,1.1,0.4,2,1.4,2.7c2.4,1.7,4.7,3.5,7.1,5.3
			c1.2,0.9,2.1,1,3.4,0.2c1-0.6,2-1.3,3.1-2c0.1,0,0.2,0,0.2,0c0,0.1,0.1,0.2,0.1,0.3c0,0.5,0,1.1,0,1.6c0,1.5,0,3,0,4.5
			c0,0.4,0,0.8,0,1.2c-0.1,0.2,0,0.4,0.2,0.6c0.1,0.1,0.1,0.2,0.2,0.3c0.1,0.3,0.4,0.5,0.6,0.7c3,2.2,6,4.5,9,6.7
			c1.2,0.9,2.2,0.9,3.5,0.1c3.1-1.8,6.1-3.7,9.2-5.6c1.1-0.6,1.6-1.5,1.6-2.6c0-2,0-4.1,0.1-6.1c2.6,2,5.3,4,7.9,5.9
			c1,0.7,1.9,0.8,3.1,0.2c0.6-0.3,1.2-0.7,1.8-1.1c4-2.4,8.1-4.9,12.1-7.3c0.9-0.6,1.8-1.2,1.8-2.3c0-2.6,0-5.2,0-7.8
			c0.8,0.1,1.2,0.8,1.9,1c0.1,1.5-0.2,2.9,0.1,4.4l0,0c0,0.5,0.3,0.9,0.7,1.2c2.2,1.7,4.3,3.4,6.7,4.9c0.9,0.8,1.9,0.6,2.8,0.1
			c1.8-1.1,3.6-2.2,5.3-3.2c1.1-0.6,1.5-1.5,1.5-2.7c0-4,0-7.9,0-11.9c0.8,0.6,1.7,1.2,2.5,1.8l0,0c0.1,0.1,0.3,0.2,0.4,0.3l0,0
			c0.1,0.1,0.2,0.1,0.3,0.2c1,0.8,2,1.6,3,2.3c1.1,0.8,2,0.9,3.2,0.2c2.2-1.3,4.3-2.6,6.5-3.9c0.8-0.5,1.3-1.2,1.3-2.1
			c0-2.4,0-4.8-0.1-7.2c0.6-1.3,0.1-2.2-1.1-3c-4.8-3.6-9.6-7.2-14.4-10.9c-0.7-0.5-1.3-1.1-2.3-1.2c0-0.1,0.1-0.2,0.1-0.4
			c0.5-0.4,0.6-0.9,0.6-1.4c0-1.2,0-2.4,0-3.5c0.7-0.2,0.8,0.4,1.1,0.6c1.7,1.4,3.6,2.6,5.4,4c1.9,1.6,2.6,1.5,4.7,0.2
			c1.5-0.9,3-1.8,4.5-2.7c0.9-0.6,1.4-1.3,1.4-2.3c0-2.7,0-5.5,0-8.2c0.5-0.9,0.5-1.8-0.5-2.6c-3.7-2.8-7.4-5.6-11-8.4
			c-1.2-1-2.5-2-3.7-3c-0.5-0.4-1-0.5-1.7-0.5c0-1.2,0.1-2.4,0.1-3.6c2.3,1.7,4.5,3.5,6.8,5.2c1.2,0.9,2.2,1,3.5,0.2
			c1.7-1,3.4-2.1,5.1-3.1c1-0.6,1.5-1.4,1.4-2.5c-0.1-2.7,0-5.3,0-8c1-1.5,1-2.1-0.7-3.3c-3.2-2.5-6.5-5-9.8-7.5
			c-1.3-1-2.5-1.9-3.8-2.9c-0.7-0.5-1.7-0.3-2.2-0.7c-0.5-0.4-0.5-1.4-1.2-1.9c-0.7-0.5-1.4-1.1-2.1-1.6c-3.3-2.6-6.7-5.1-10-7.7
			c-1.2-0.9-2.4-1.1-3.6-0.3c-4.3,2.7-8.7,5.3-13,8c-0.9,0.6-1.3,1.4-0.6,2.3c0,0.1,0,0.1,0,0.2c0,0-0.2,0-0.2,0
			c-1.2-0.8-2.4-0.8-3.6,0c-4.7,3-9.4,5.9-14.2,8.9c-1.1,0.7-1.6,1.4-1.5,2.5c-0.2,0-0.3-0.1-0.5-0.1c-0.2,0-0.3,0-0.5,0
			c-0.6-0.1-1.1,0.1-1.6,0.2c0-0.2,0.1-0.4,0.1-0.6c0.2-1.1-0.7-1.6-1.4-2.1c-4.1-3.1-8.2-6.3-12.3-9.4c-0.7-0.6-1.5-1-2.5-1.2
			c0.1-0.5-0.3-0.8-0.6-1c-4.5-3.4-9.1-6.8-13.7-10.2c-1.4-1.1-2.5-1-4.1-0.1c-4.2,2.7-8.5,5.3-12.7,8c-0.6,0.4-1.1,0.8-1.1,1.4
			c0,0.3,0,0.7-0.1,1c-1-0.1-2-0.3-2.9,0.3c-4,2.5-8,5-11.9,7.5c-0.9,0.6-1.3,1.4-0.8,2.4C315.1,119.5,315.2,119.6,315.4,119.6z"/>
		<path class="st7" d="M401,111.8c-0.7-0.9-0.3-1.7,0.6-2.3c4.3-2.7,8.6-5.4,13-8c1.2-0.7,2.4-0.6,3.6,0.3c3.4,2.6,6.7,5.1,10,7.7
			c0.7,0.5,1.4,1.1,2.1,1.6c0.7,0.5,0.7,1.4,1.2,1.9c0.5,0.4,1.5,0.2,2.2,0.7c1.2,1,2.5,1.9,3.8,2.9c3.3,2.5,6.5,5,9.8,7.5
			c1.6,1.2,1.7,1.8,0.7,3.3c-1.7,1-3.4,2-5.1,3c-0.6,0.4-1.4,0.5-1.9,1.1c-1.1,1.1-2.6,1.7-4,2.4c0.4-1.4,0.4-2.9,0.1-4.3
			c-0.3-1.3-1.1-2.6-2.5-3.3c-2.9-1.4-6.2-1.9-9.5-1.7c-2.1,0.1-4.1,0.4-6.2,0.3l0.1,0l-0.1,0c0.1-0.3-0.1-0.3-0.4-0.3l0,0
			c0-0.1-0.2-0.2-0.3-0.2c-0.1,0-0.2,0-0.2-0.1c0-0.2-0.1-0.2-0.3-0.2l0-0.1l0,0.1c0-0.2-0.1-0.2-0.2-0.2l0,0
			c0.1-0.5-0.2-0.5-0.6-0.5l0,0c-0.1-0.9,0.4-1.4,1.3-1.8c0.4-0.2,0.9-0.4,1.1-0.8c0.2,0,0.4,0,0.3-0.3c0,0,0-0.1-0.1-0.1
			c-0.2,0-0.3,0.2-0.3,0.3c-0.3,0-0.5,0-0.8,0.2c-0.9,0.7-2.1,0.9-3.3,0.9c-0.4,0.1-0.7,0-1.1-0.2c-1.2-1-2.5-1.9-3.8-2.8
			C407.2,116.3,404.1,114,401,111.8z M421,119.3c-0.8,0.2-0.8,0.2-1,0.7C420.6,119.8,420.6,119.8,421,119.3c0.3,0,0.6-0.1,0.7-0.4
			c0.7-0.2,1.4-0.5,1.7-1.1c-0.7,0.2-1.4,0.4-1.7,1.1C421.3,118.9,421,118.9,421,119.3z M426.3,116.1c-1.1,0.2-1.7,0.8-2.4,1.5
			C424.7,117.1,425.8,116.9,426.3,116.1c0.1-0.1,0.3-0.1,0.1-0.3C426.4,115.9,426.3,116,426.3,116.1z"/>
		<path class="st8" d="M401,111.8c3.1,2.3,6.2,4.5,9.3,6.8c1.3,0.9,2.5,1.9,3.8,2.8c0.3,0.3,0.7,0.3,1.1,0.2
			c0.1,0.1,0.2,0.3,0.4,0.3c0.9,0,1.1,0.4,1.1,1.1c0,0.1,0.1,0.1,0.2,0.2c0,0,0,0,0,0c0,0.3,0.3,0.4,0.6,0.5c0,0,0,0,0,0
			c0.1,0.1,0.2,0.1,0.2,0.2c0,0,0-0.1,0-0.1s0,0.1,0,0.1c0,0.2,0.1,0.2,0.3,0.2c0,0.1,0,0.1,0.2,0.1c0,0.2,0.1,0.2,0.3,0.2
			c0,0,0,0,0,0c0,0.2,0.2,0.3,0.4,0.3l0.1,0c0,0-0.1,0-0.1,0c0.4,0.9,1.5,1,2.1,1.8c-0.7,0-1.3,0-2,0c-0.5,0-0.9,0.2-1.2,0.7
			c-0.7,1.4-1.5,2.9-2.2,4.3c-1,1.9-1.9,3.8-3,5.7c-1.4,0.5-2.5,1.3-3.8,1.9c-1.1,0.5-2.2,1.4-3.7,1c2.1-0.3,1.8-1.7,1.8-3
			c0-1.1,0.1-2.2,0.3-3.2c0.3-1,0.3-2-0.1-2.9c0.5-1.1,1-2.1,1.6-3.2c0.2-0.5,0.3-0.9-0.2-1.2c-0.2-0.3-0.5-0.2-0.8-0.2
			c-4.1,0-8.1,0-12.2,0c-0.3,0-0.7-0.1-0.9,0.3c-0.5,0.3-0.7,0.8-0.9,1.2c-0.6,1.1-1,2.3-1.8,3.3c-1.6-1.2-3.1-2.4-4.7-3.7
			c-1.9-1.4-3.6-2.9-5.7-4.1c0,0,0-0.1,0.1-0.1c-0.1-1.1,0.4-1.9,1.5-2.5c4.8-2.9,9.5-5.9,14.2-8.9c1.2-0.8,2.4-0.8,3.6,0
			c0,0,0.2,0,0.2,0C401,111.9,401,111.8,401,111.8z"/>
		<path class="st9" d="M430.1,167c1,0.1,1.6,0.7,2.3,1.2c4.8,3.6,9.6,7.3,14.4,10.9c1.1,0.8,1.7,1.7,1.1,3c-2.7,1.6-5.4,3.3-8.1,4.8
			c-2,1.1-3.8,2.6-6,3.4c-1.1,0-1.9-0.4-2.7-1c-3.4-2.5-6.8-5-10.2-7.6c-1.8-1.3-3.5-2.6-5.3-3.9c-0.8-0.6-0.7-1.3,0-1.9
			c0.5-0.5,1.2-0.9,1.8-1.3c2.5-1.5,5-3.1,7.5-4.6C426.5,169,428,167.6,430.1,167z"/>
		<path class="st10" d="M330.8,108.2c0-0.7,0.5-1.1,1.1-1.4c4.2-2.7,8.5-5.3,12.7-8c1.5-1,2.7-1,4.1,0.1c4.6,3.4,9.1,6.8,13.7,10.2
			c0.4,0.3,0.7,0.6,0.6,1c-0.8,0.5-1.6,0.9-2.4,1.4c-4.6,2.8-9.1,5.7-13.6,8.5c-0.8,0-1.4-0.3-2-0.7c-4.4-3.3-8.9-6.6-13.3-9.9
			C331.1,109.1,330.9,108.7,330.8,108.2z"/>
		<path class="st11" d="M385.1,208.9c0,2-0.1,4.1-0.1,6.1c0,1.2-0.5,2-1.6,2.6c-3.1,1.8-6.1,3.7-9.2,5.6c-1.3,0.8-2.3,0.8-3.5-0.1
			c-3-2.2-6-4.4-9-6.7c-0.3-0.2-0.6-0.4-0.6-0.7c-0.1-0.1-0.1-0.2-0.2-0.3c-0.2-0.2-0.3-0.4-0.2-0.6c0.6-0.4,0.6-0.8,0-1.2
			c0-1.5,0-3,0-4.5c0.7,0.1,0.1,0.8,0.6,1.1c0.4,0.1,0.5-0.8,1-0.2c0.7,0.9,1.8,1,2.9,1.3c0.6,0.1,1,0.2,1.5-0.2
			c1.4-0.9,2.8-1.9,4.1-2.9c2.8-2,4.8-4.6,6-7.5c0.7-1.7,0.6-1.7,2.5-1.8l0,0c0.1,0.1,0.2,0.1,0.2,0.2l0,0c0.1,0.1,0.2,0.1,0.2,0.2
			c0,0,0,0,0,0c0.1,0.1,0.2,0.1,0.3,0.2c0.2,0.1,0.5,0.2,0.6,0.4c0.1,0.1,0.2,0.1,0.2,0.2l0,0c0.1,0.1,0.2,0.1,0.2,0.2l0,0
			c0.1,0.1,0.2,0.1,0.2,0.2l0,0c0.1,0.1,0.2,0.1,0.3,0.2c0.2,0,0.3,0.1,0.4,0.3c0,0.2,0.2,0.3,0.5,0.3l0,0c0.1,0.1,0.2,0.1,0.2,0.2
			l0,0c0.1,0.1,0.2,0.1,0.3,0.2l0,0c0.1,0.1,0.2,0.1,0.3,0.2c0.1,0.1,0.2,0.1,0.3,0.2c0.1,0.1,0.2,0.1,0.3,0.2
			c0.1,0.1,0.1,0.1,0.2,0.2c0.1,0.1,0.2,0.2,0.2,0.2c0.2,0.1,0.5,0.2,0.5,0.5c0,0.4-0.2,0.8,0.2,1.1C385,206,385,207.4,385.1,208.9z
			"/>
		<path class="st7" d="M346.9,120c4.5-2.8,9.1-5.7,13.6-8.5c0.8-0.5,1.6-0.9,2.4-1.4c1,0.2,1.8,0.6,2.5,1.2
			c4.1,3.1,8.2,6.3,12.3,9.4c0.7,0.6,1.7,1.1,1.4,2.1c-0.4,0.4-1.2,0.5-1.4,1.2l-0.1,0c-0.3,0-0.6,0.1-0.6,0.4l-0.1,0
			c-0.2,0-0.3,0.1-0.4,0.2l0,0c-0.3,0-0.4,0.1-0.5,0.3c0,0.1-0.1,0.1-0.2,0.1c-0.3,0-0.5,0.1-0.5,0.3c-0.1,0.1-0.3,0.2-0.4,0.3
			c-0.1,0.1-0.2,0.1-0.3,0.2l0,0c-0.1,0-0.1,0-0.2,0.1c-0.1,0-0.1,0.1-0.2,0.1c-0.8,0.2-1.4,0.6-1.9,1.1l0,0.1
			c-0.2,0-0.3,0.1-0.4,0.2c-0.1,0.1-0.2,0.1-0.3,0.2c-0.3,0-0.5,0.1-0.7,0.4l0,0c-0.1,0.1-0.1,0.1-0.2,0.2l-0.1,0
			c-0.3,0-0.6,0-0.7,0.4l0,0c-0.3,0-0.6,0-0.7,0.4c0,0.1-0.1,0.2-0.3,0.2c-1.1,0.4-1.8,0.1-2.3-0.8c-0.5-0.9-1.5-1.3-2.4-1.8
			c-0.6-0.4-1.1-0.3-1.4,0.4c0-0.1-0.1-0.2-0.1-0.3c0-0.8-0.8-0.9-1.4-1.1c-2.8-0.9-5.7-0.9-8.6-0.2c-1.9-1.3-3.7-2.6-5.5-4
			C346.8,121,346.7,120.6,346.9,120z"/>
		<path class="st9" d="M345.1,197.1c-1.2-0.8-1.3-2.1,0.5-3.4c1.3-0.7,2.6-1.3,3.6-2.3l0,0c0.8-0.3,1.5-0.6,1.9-1.2l0,0
			c0.9-0.1,1.5-0.6,2.1-1.2c1.1-0.6,2.1-1.3,3.2-1.9c0.5,0,0.9-0.4,1.5-0.3c0.1,0.1,0.2,0.2,0.2,0.3c0.7,2.3,2.2,3.7,5.2,3.2
			c0,0.6,0.6,0.6,0.9,0.9c2.8,2.1,5.6,4.1,8.4,6.1c0.6,0.4,1,0.9,0.7,1.7c-0.1,0.1-0.1,0.3-0.2,0.4l0,0c-0.1,0.1-0.2,0.1-0.2,0.2
			c0,0,0,0,0,0c-0.1,0.1-0.2,0.1-0.2,0.2c0,0,0,0,0,0c-0.2,0-0.4,0-0.5,0.2c0,0,0,0,0,0c-0.4,0.1-0.9,0.1-0.9,0.6l0,0
			c-0.2,0-0.4,0-0.5,0.2l0,0c-0.1,0.1-0.2,0.1-0.2,0.2l0,0c-0.2,0-0.4,0-0.5,0.2c0,0,0,0,0,0c-0.1,0.1-0.2,0.2-0.2,0.2
			c-1,0.8-2.2,1.4-3.2,2c-1.8,1.1-3.6,2.3-5.3,3.4c-0.2,0.1-0.3,0.1-0.5,0.2c-0.1,0-0.2,0.1-0.2,0.1c-0.1,0-0.2,0-0.2,0
			c-0.8,0-1.6-0.3-2.2-0.7c-3.2-2.4-6.3-4.7-9.5-7C347.5,198.6,346.7,197.5,345.1,197.1z"/>
		<path class="st10" d="M359.3,96.9c-0.4-1,0-1.7,1-2.3c2.9-1.9,5.9-3.7,8.8-5.6c1.5-0.9,2.7-0.9,4.1,0.1c2.3,1.7,4.6,3.5,6.9,5.2
			c0.3,0.3,0.6,0.6,1.1,0.7c0.1,0.4,0.6,0.6,0.9,0.9c1.5,1.1,3,2.3,4.6,3.4c0.7,0.5,1.3,1,1.4,1.9c0,0.1-0.1,0.3-0.1,0.4
			c-0.2,0.2-0.3,0.4-0.5,0.5c-3.3,2.1-6.6,4.1-9.9,6.1c-1.1,0.7-1.9,0.6-3.1-0.1c-1.2-0.8-2.3-1.8-3.6-2.5c-2.8-2.1-5.6-4.2-8.4-6.3
			c-0.9-0.9-2-1.6-3-2.2c0,0,0,0,0,0C359.4,97.1,359.4,97,359.3,96.9z"/>
		<path class="st10" d="M315.1,119.3c-0.5-1-0.1-1.8,0.8-2.4c4-2.5,8-5,11.9-7.5c0.9-0.6,1.9-0.4,2.9-0.3c0.2,0.4,0.6,0.7,1,1
			c3.7,2.8,7.3,5.5,11,8.3c0.8,0.6,1.5,1.3,1.6,2.3c-0.3,0.7-1,1.1-1.6,1.6c-0.7,0.4-1.5,0.7-2,1.3c-1.6,0.7-2.9,1.8-4.4,2.6
			c-0.1,0-0.2,0-0.2,0c-2.8,0-5.7,0-8.5,0c-0.3,0-0.7-0.1-1,0.2c-0.2,0.1-0.5,0.3-0.7,0.4c-0.5,0-0.9-0.4-1.3-0.6
			c-1.6-1.2-3.2-2.4-4.9-3.6c-1.3-0.9-2.3-2-3.9-2.7c0,0,0,0,0,0c0-0.1-0.1-0.2-0.2-0.2c0,0,0,0,0,0c-0.1-0.1-0.2-0.1-0.2-0.2
			c0,0,0,0,0,0C315.3,119.5,315.2,119.4,315.1,119.3z"/>
		<path class="st7" d="M315.4,166.3c-0.3-0.9,0.1-1.6,1-2.2c3.6-2.3,7.3-4.5,10.9-6.8c0.9-0.6,1.9-0.8,3-0.8c0.8,0.5,1.5,1,2.3,1.5
			c1.6,1.3,3.1,2.5,4.8,3.6c0.8,0.7,1.7,1.4,2.5,2.1c0,0.3,0,0.6,0.5,0.6c0.1,0.1,0.3,0.1,0.4,0.2c-0.1,1,0.4,1.9,0.7,2.8
			c0.2,0.7,0.8,1.1,1.7,1.1c-0.4,0.5-1.1,0.8-1.7,1.2c-0.1,0.1-0.2,0.1-0.2,0.2l0,0c-0.2,0-0.4,0-0.4,0.2c0,0,0,0,0,0
			c-0.1,0.1-0.2,0.1-0.2,0.2c0,0,0,0,0,0c-0.5,0.2-1.1,0.4-1.6,0.7c-2.6,1.9-5.5,3.4-8.2,5.1c-0.8,0.5-1.8,0.5-2.6-0.1
			c-0.8-0.6-1.5-1.2-2.4-1.8c-1.8-1.2-3.4-2.5-5.1-3.7c-1.6-1.2-3.2-2.4-5-3.4c0,0,0,0,0,0c0-0.1-0.1-0.2-0.2-0.2c0,0,0,0,0,0
			C315.5,166.6,315.5,166.4,315.4,166.3z"/>
		<path class="st12" d="M384.1,202.6c-0.1-0.1-0.1-0.1-0.2-0.2c-0.1-0.1-0.2-0.1-0.3-0.2c-0.1-0.1-0.2-0.1-0.3-0.2
			c-0.1-0.1-0.2-0.1-0.3-0.2c0,0,0,0,0,0c-0.1-0.1-0.2-0.1-0.3-0.2c0,0,0,0,0,0c-0.1-0.1-0.2-0.1-0.2-0.2c0,0,0,0,0,0
			c-0.1-0.2-0.3-0.3-0.5-0.3c-0.1-0.2-0.2-0.3-0.4-0.3c-0.1-0.1-0.2-0.1-0.3-0.2c0,0,0,0,0,0c-0.1-0.1-0.2-0.1-0.2-0.2c0,0,0,0,0,0
			c-0.1-0.1-0.2-0.1-0.2-0.2c0,0,0,0,0,0c-0.1-0.1-0.2-0.1-0.2-0.2c-0.1-0.2-0.4-0.3-0.6-0.4c-0.1-0.1-0.2-0.1-0.3-0.2c0,0,0,0,0,0
			c-0.1-0.1-0.2-0.1-0.2-0.2c0,0,0,0,0,0c-0.1-0.1-0.2-0.1-0.2-0.2c0,0,0,0,0,0c-2.3-1.8-4.7-3.5-6.9-5.3c-1.4-1.1-3.1-2-4.2-3.4
			c0.2,0,0.3-0.1,0.5-0.1c0.7,0.5,1.3,1,2,1.5c1.5,1,2.7,2.2,4.2,3c1.3,1.1,2.5,2.5,4.7,2.1c-0.6,1,0.1,1.7,0.9,2.2
			c0.9,0.6,1.7,1.3,2.6,1.9c2.7,2,5.5,4,8.2,5.9c0.9,0.7,2,0.7,2.9,0.1c4.3-2.6,8.6-5.2,12.9-7.8c1.7-1,1.8-1.9,0.3-3.2
			c-1.2-1-2.4-1.8-3.7-2.7c-1.2-1.1-2.6-2-4-3c0.5-0.2,0.7-0.6,0.9-1c1.3-2.6,2.7-5.2,4-7.8c1.4-2.7,2.9-5.4,4.3-8.1
			c0.4,0.3,0.9,0.7,1.3,1c-0.7,0.1-0.8,0.7-1,1.1c-0.5,1.4-1,2.8-1.5,4.1c-0.1,0.3-0.2,0.6,0,0.8c0.6,0.6,0.1,0.8-0.4,1.2
			c-1.3,0.9-3,1.5-3.7,3c-0.6,1.2-0.9,2.6-1.7,3.7c-0.2,0.3,0.2,0.5,0.4,0.7c1.1,1.4,2.8,2.2,4.2,3.3c0.7,0.5,1.4,1,2.1,1.5
			c1.1,0.9,2.6,1.5,3.3,2.7c0,2.6,0,5.2,0,7.8c0,1.2-0.9,1.7-1.8,2.3c-4,2.4-8.1,4.9-12.1,7.3c-0.6,0.4-1.2,0.8-1.8,1.1
			c-1.1,0.6-2.1,0.6-3.1-0.2c-2.7-2-5.3-4-7.9-5.9c0-1.5,0-3-0.1-4.5c0.1-0.4,0.2-0.8-0.2-1.1c0-0.3-0.2-0.4-0.5-0.5
			C384.2,202.8,384.2,202.7,384.1,202.6z"/>
		<path class="st13" d="M411.7,196.5c-0.7-1.2-2.2-1.8-3.3-2.7c-0.7-0.6-1.4-1-2.1-1.5c0-0.8,0.1-1.6,0.4-2.4
			c1.6-3.4,3.3-6.8,4.8-10.2c0.5-1,1.1-1.5,2.3-1.7c0.6,0,1,0.3,1.4,0.6c2.9,1.9,5.6,4.1,8.3,6.2c1.7,1.3,3.6,2.5,5,4.1
			c-0.1,0.6-0.6,0.9-1.1,1.2c-3.9,2.5-8,4.8-12.1,7.1c-0.3,0.2-0.5,0.3-0.6,0.6c-0.4,0.1-0.9-0.1-1.3-0.2
			C412.9,197.3,412.5,196.6,411.7,196.5z"/>
		<path class="st11" d="M381.4,123.4c2.1,1.1,3.8,2.7,5.7,4.1c-0.2,0.2-0.4,0.5-0.5,0.7c-0.7,1.3-0.5,2.6-0.8,3.9
			c-1,3.7-3,7.1-4.4,10.7c-0.3,0.7-0.7,1.3-1.3,1.9c-1.3,1.4-2.6,1.3-3.4-0.3c-0.1-0.1-0.1-0.2-0.2-0.4c-2.5-3.7-4.6-7.6-6.7-11.5
			c-1-2-0.8-2.2,1.2-3.7c0.8-0.6,1.8-1,2.4-1.9c0.4-0.1,0.9-0.2,1.3-0.4c1.8-1.4,4-2.2,5.9-3.5c0.2,0,0.3,0,0.5,0
			C381.2,123.3,381.3,123.3,381.4,123.4z"/>
		<path class="st14" d="M380.5,87.9c-0.7-1-0.6-1.9,0.4-2.6c2.6-1.7,5.2-3.3,7.8-4.9c1.3-0.8,2.4-0.7,3.6,0.2
			c3.6,2.8,7.3,5.5,10.9,8.3c0.9,0.7,1,1.5,0.5,2.4c-1.4,0.9-2.8,1.8-4.2,2.6c-1.7,1-3.3,2.3-5.3,3c-0.9,0-1.7-0.4-2.4-0.9
			c-2.4-1.8-4.8-3.7-7.3-5.4c-1.1-0.8-2.1-1.8-3.5-2.4c0,0,0,0,0,0c0-0.2-0.1-0.2-0.2-0.2c0,0,0,0,0,0
			C380.8,87.9,380.7,87.9,380.5,87.9z"/>
		<path class="st15" d="M428.7,188.8c-1.4-1.6-3.2-2.8-5-4.1c-2.8-2.1-5.4-4.3-8.3-6.2c-0.4-0.3-0.9-0.5-1.4-0.6
			c-0.7-1.6-2-2.8-3.8-3.6c-0.4-0.3-0.9-0.7-1.3-1c1.3-2.6,2.7-5.2,4-7.8c0.8-1.6,1.6-3.3,2.5-4.9c2-3.8,4.1-7.6,6.1-11.4
			c0.1,0.2,0.3,0.4,0.4,0.6c-0.1,0.9-0.1,1.7-0.2,2.6c-0.1,1,0.1,2,1.1,2.8c0.9,0.6,1.7,1.3,2.6,2c1.5,1.2,3.1,2.4,4.6,3.6
			c0.4,0.3,0.7,0.6,0.8,1.1c0,1.2,0,2.4,0,3.5c0,0.5-0.2,1-0.6,1.4c-0.3-0.3-0.2-0.6,0-0.9c0.3-0.7,0-1.2-0.7-1.7
			c-1.2-0.8-2.3-1.6-3.4-2.5c-0.9-0.7-2.3-0.3-3.1-1c0,0-0.2,0-0.3,0.1c-1.1,1-2.2,1.9-3.3,2.9c-0.1,0.1-0.1,0.2-0.1,0.3
			c-0.4,1.6-1.3,3.2-1.8,4.8c-0.6,1.9-1.7,3.8-0.1,5.7c0.1,0.1,0,0.2,0,0.3c-0.6,0.4-1.2,0.8-1.8,1.3c-0.7,0.6-0.8,1.3,0,1.9
			c1.8,1.3,3.5,2.6,5.3,3.9c3.4,2.5,6.8,5,10.2,7.6c0.8,0.6,1.6,1,2.7,1c0.2,0.7-0.6,1.3-0.5,2c-0.8-0.6-1.7-1.2-2.5-1.8
			C430.2,189.8,429.4,189.3,428.7,188.8z"/>
		<path class="st14" d="M436.3,142.5c3.7,2.8,7.3,5.6,11,8.4c1,0.8,1,1.6,0.5,2.6c-0.4,0.2-0.8,0.3-1.1,0.5c-3,1.8-5.9,3.6-8.9,5.3
			c-1.2,0.7-2.3,0.6-3.4-0.2c-2-1.5-3.9-3-5.9-4.4c0.6-1.2,1.2-2.3,1.9-3.5c0.9-1.4,1.7-2.8,2.5-4.2
			C433.8,145.4,434.7,143.7,436.3,142.5z"/>
		<path class="st16" d="M428.7,188.8c0.7,0.5,1.5,1,2.1,1.6c0,4,0,7.9,0,11.9c0,1.1-0.4,2-1.5,2.7c-1.8,1.1-3.6,2.1-5.3,3.2
			c-0.9,0.6-1.9,0.8-2.8-0.1c0.9-2.5,0.8-5.1,0.9-7.7c0-1-0.4-1.3-1.4-1.5c-1.9-0.4-3.8-0.7-5.6-1.3c0-0.3,0.3-0.4,0.6-0.6
			c4.1-2.3,8.1-4.6,12.1-7.1C428,189.7,428.5,189.4,428.7,188.8z"/>
		<path class="st17" d="M428.7,154.7c1.9,1.5,3.9,3,5.9,4.4c1.1,0.8,2.2,0.9,3.4,0.2c3-1.8,5.9-3.6,8.9-5.3c0.3-0.2,0.7-0.4,1.1-0.5
			c0,2.7,0,5.5,0,8.2c0,1-0.5,1.7-1.4,2.3c-1.5,0.9-3,1.8-4.5,2.7c-2.2,1.3-2.9,1.3-4.7-0.2c-1.7-1.4-3.6-2.7-5.4-4
			c-0.3-0.3-0.5-0.8-1.1-0.6c0-0.5-0.4-0.8-0.8-1.1c-1.5-1.2-3.1-2.4-4.6-3.6c0-0.4,0.1-0.7,0.1-1.1c0.1-1,1.1-1.6,1.3-2.6
			C427.6,153.7,428,154.4,428.7,154.7z"/>
		<path class="st18" d="M370.9,105.7c1.3,0.7,2.3,1.7,3.6,2.5c1.1,0.7,1.9,0.8,3.1,0.1c3.3-2,6.6-4.1,9.9-6.1
			c0.2-0.1,0.4-0.3,0.5-0.5c0,3.6,0,7.2,0,10.7c0,0.9-0.4,1.7-1.2,2.2c-1.6,1-3.2,2-4.8,3c-1.4,0.8-2.2,0.7-3.4-0.2
			c-1.6-1.2-3.3-2.5-4.9-3.7c0.1-0.2,0.3-0.4,0-0.6c-1-1.1-1.8-2.3-2.1-3.7c-0.1-0.4-0.3-0.7-0.6-1.1
			C370.5,107.4,370.6,106.6,370.9,105.7z"/>
		<path class="st12" d="M356.3,187.2c-1.1,0.6-2.1,1.3-3.2,1.9c-0.8,0.2-1.5,0.7-2.1,1.2c0,0,0,0,0,0c-0.7,0.4-1.5,0.5-1.9,1.2
			c0,0,0,0,0,0c-1.5,0.5-2.7,1.4-3.9,2.2c-0.6,0.2-1.1,0.6-1.6,1c-1.6,1.1-2.7,1.2-4.2,0c-2.8-2.2-5.9-4.1-8.6-6.4
			c0.7-0.1,1.5,0.2,1.8-0.7c0.3-1.2,0.6-2.3,0.8-3.6c0.2-1.3-0.6-2.2-1.2-3.3c1.7,0.9,3.2,2.1,4.7,3.2c2,1.5,4.1,3,6.2,4.5
			c1,0.7,2.2,0.7,3.2,0.1c1.9-1.1,3.9-2.2,5.6-3.5c1.4-0.5,2.6-1.3,3.5-2.3c0.2,0.2,0.4,0.4,0.4,0.7c0,0-0.1,0-0.1,0
			c0,0,0.1,0.1,0.1,0.1l0,0c0,0.2,0,0.4,0.3,0.4l0,0C356.2,185,356.7,186.1,356.3,187.2z"/>
		<path class="st10" d="M315.6,143.1c-0.5-0.9-0.2-1.7,0.7-2.3c3-1.9,6-3.8,9-5.6c0.2,0.3,0.3,0.5,0.4,0.8c1.1,3.2,3,6.1,4.4,9.3
			c0.9,2.1,1.9,4.1,2.8,6.1c-0.9,0.6-1.8,1.1-2.8,1.6c-1,0-1.7-0.4-2.4-0.9c-2.9-2.1-5.7-4.2-8.6-6.3c-0.9-0.7-1.7-1.6-2.9-1.9
			c0,0,0,0,0,0c0-0.2,0-0.3-0.2-0.2c0,0,0,0,0,0c0-0.2-0.1-0.2-0.2-0.2c0,0,0,0,0,0C315.9,143.3,315.7,143.2,315.6,143.1z"/>
		<path class="st19" d="M436.8,133.8c1.4-0.7,2.9-1.3,4-2.4c0.5-0.5,1.3-0.7,1.9-1.1c1.7-1,3.4-2,5.1-3c0,2.7,0,5.3,0,8
			c0,1.1-0.4,1.9-1.4,2.5c-1.7,1-3.4,2.1-5.1,3.1c-1.3,0.8-2.3,0.7-3.5-0.2c-2.3-1.7-4.5-3.5-6.8-5.2c-0.2-0.8,0.2-1.9-1.1-2.3
			c0.6-1.2,1.2-2.4,1.9-3.5c0.3,0.9,0.5,1.7,0.3,2.6c-0.3,1.8,0.5,2.7,2.2,2.7c0.6,0,1.1-0.3,1.5-0.6c0.1-0.1,0.1-0.2,0.2-0.2l0,0
			c0.2,0,0.4,0,0.4-0.2l0,0C436.6,133.9,436.7,133.8,436.8,133.8C436.8,133.8,436.8,133.8,436.8,133.8z"/>
		<path class="st9" d="M428.7,154.7c-0.7-0.3-1.1-1-1.9-1.2c-1.5-1.1-2.9-2.3-4.4-3.4c0.2-1.2,1-2.3,1.5-3.4
			c0.7-1.6,1.8-3.2,2.2-4.9l0,0c0.3,0,0.7,0,0.7-0.4c0,0,0,0,0,0c0.1-0.1,0.2-0.1,0.2-0.2l0,0c0.3,0,0.7,0,0.7-0.4l0,0
			c0.1-0.1,0.2-0.1,0.3-0.2c0,0,0,0,0,0c0.1-0.1,0.2-0.1,0.2-0.2c0.1,0,0.1,0,0.2-0.1c0.1-0.1,0.2-0.1,0.2-0.2c0.6-0.5,1.3-1,2.3-1
			c0.6,0,1.2,0.2,1.7,0.5c1.3,1,2.5,2,3.7,3c-1.7,1.2-2.5,2.9-3.3,4.5c-0.7,1.5-1.6,2.8-2.5,4.2
			C429.8,152.3,429.3,153.5,428.7,154.7z"/>
		<path class="st15" d="M368.1,190.3c1.1,1.4,2.8,2.3,4.2,3.4c2.3,1.8,4.6,3.5,6.9,5.3c-1.9,0.1-1.8,0.1-2.5,1.8
			c-1.2,3-3.2,5.5-6,7.5c-1.3,1-2.7,2-4.1,2.9c-0.6,0.4-0.9,0.3-1.5,0.2c-1.1-0.3-2.2-0.4-2.9-1.3c-0.5-0.6-0.6,0.3-1,0.2
			c-0.4-0.3,0.2-0.9-0.6-1.1c0-0.5,0-1.1,0-1.6c0.1-0.1,0.1-0.2,0.2-0.4c0.2-0.1,0.3-0.1,0.5-0.2c1.3,0.9,2.2,1,3.5,0.3
			c1.8-1,3.5-2.2,5.4-3.1c1.7-0.9,2.1-2,1.7-3.6c0.1-0.2,0.4-0.3,0.4-0.5c0,0,0,0,0,0c0.2,0,0.4,0,0.5-0.2c0,0,0,0,0,0
			c0.1-0.1,0.2-0.1,0.2-0.2c0,0,0,0,0,0c0.1-0.1,0.2-0.1,0.2-0.2c0,0,0,0,0,0c0.1-0.1,0.1-0.3,0.2-0.4c0.3-0.7-0.1-1.2-0.7-1.7
			c-2.8-2-5.6-4.1-8.4-6.1c-0.3-0.3-1-0.3-0.9-0.9C364.9,190.3,366.5,190.3,368.1,190.3z"/>
		<path class="st11" d="M433.3,192.3c-0.2-0.7,0.6-1.3,0.5-2c2.3-0.8,4-2.2,6-3.4c2.7-1.6,5.4-3.2,8.1-4.8c0,2.4,0,4.8,0.1,7.2
			c0,0.9-0.5,1.6-1.3,2.1c-2.1,1.3-4.3,2.6-6.5,3.9c-1.2,0.7-2.1,0.6-3.2-0.2c-1-0.8-2-1.6-3-2.3c0-0.1-0.1-0.2-0.3-0.2c0,0,0,0,0,0
			C433.7,192.3,433.5,192.3,433.3,192.3L433.3,192.3z"/>
		<path class="st11" d="M417.3,174.6c0-0.1,0-0.2,0-0.3c-1.6-1.9-0.5-3.8,0.1-5.7c0.5-1.6,1.4-3.1,1.8-4.8c0-0.1,0-0.2,0.1-0.3
			c1.1-1,2.2-1.9,3.3-2.9c0.1-0.1,0.3-0.1,0.3-0.1c0.9,0.8,2.2,0.3,3.1,1c1.1,0.9,2.3,1.6,3.4,2.5c0.6,0.4,0.9,1,0.7,1.7
			c-0.1,0.3-0.2,0.6,0,0.9c0,0.1-0.1,0.2-0.1,0.4c-2.1,0.6-3.6,2-5.3,3C422.2,171.5,419.8,173.1,417.3,174.6z"/>
		<path class="st15" d="M381,88.3c1.4,0.5,2.4,1.6,3.5,2.4c2.5,1.8,4.9,3.6,7.3,5.4c0.7,0.5,1.5,0.9,2.4,0.9
			c0.2,0.2,0.5,0.5,0.6,0.7c0.1,0.5-0.1,1.3,0.3,1.7c0.8,0.9,0.2,1.5-0.3,2.2c-0.5,0.6-0.7,1.2-1.7,1.3c-0.7,0.1-0.8,0.7-0.3,1.3
			c0.2,0.2,0.9,0.4,0.4,0.9c-1.7-1.2-3.4-2.4-5-3.7c-0.1-0.8-0.7-1.4-1.4-1.9c-1.5-1.1-3-2.3-4.6-3.4c-0.3-0.3-0.8-0.5-0.9-0.9
			c-0.2-1.7-0.1-3.4-0.1-5.1C381.2,89.4,381.1,88.8,381,88.3z"/>
		<path class="st11" d="M393.1,104.9c0.5-0.5-0.2-0.6-0.4-0.9c-0.5-0.6-0.3-1.2,0.3-1.3c1-0.1,1.3-0.7,1.7-1.3
			c0.6-0.7,1.2-1.3,0.3-2.2c-0.3-0.4-0.1-1.1-0.3-1.7c-0.1-0.3-0.4-0.5-0.6-0.7c2-0.7,3.5-2,5.3-3c1.4-0.8,2.8-1.8,4.2-2.6
			c0,3,0,6,0,8.9c0,1-0.4,1.8-1.3,2.3c-1.6,0.9-3.1,1.9-4.6,2.9C395.8,106.6,394.9,106.5,393.1,104.9z"/>
		<path class="st19" d="M315.8,166.9c1.8,1,3.3,2.3,5,3.4c1.7,1.2,3.4,2.5,5.1,3.7c0.8,0.6,1.6,1.2,2.4,1.8c0.8,0.6,1.7,0.6,2.6,0.1
			c2.8-1.7,5.6-3.2,8.2-5.1c0.5-0.3,1.1-0.5,1.6-0.7c0,0.4-0.6,1.1,0.5,1.1c-0.1,0.1-0.3,0.2-0.4,0.3c-3.3,2.1-6.8,4.1-10,6.3
			c-0.2,0-0.4,0-0.6,0c0-0.3-0.1-0.7-0.1-1.1c-1,0.6-1.8,1.2-2.7,1.8c-1.7,1.1-2.6,1.1-4.2-0.1c-1.9-1.5-3.8-2.9-5.8-4.3
			c-1-0.7-1.4-1.6-1.4-2.7C315.9,169.8,316,168.3,315.8,166.9z"/>
		<path class="st18" d="M315.8,120c1.5,0.6,2.6,1.8,3.9,2.7c1.7,1.2,3.2,2.4,4.9,3.6c0.4,0.3,0.7,0.6,1.3,0.6
			c1.4,2.6,2.7,5.2,4.1,7.8c-1.3-0.5-2.6-1.1-3.9-0.1c-3-2.2-6-4.5-9.1-6.7c-0.8-0.6-1.1-1.3-1.1-2.2
			C315.9,123.7,316,121.8,315.8,120z"/>
		<path class="st14" d="M326,134.6c1.3-1,2.6-0.4,3.9,0.1c0.4,0.7,0.7,1.3,1.1,2c2.2,4,4.4,8,6.4,12.1c-0.3,0.2-0.6,0.4-0.9,0.7
			c-1.2,0.7-2.3,1.3-3.5,2c-0.9-2-1.9-4.1-2.8-6.1c-1.4-3.1-3.3-6-4.4-9.3c-0.1-0.3-0.3-0.5-0.4-0.8
			C325.6,135,325.8,134.8,326,134.6z"/>
		<path class="st11" d="M345.1,197.1c1.5,0.3,2.4,1.5,3.5,2.3c3.2,2.3,6.3,4.7,9.5,7c0.6,0.5,1.4,0.7,2.2,0.7c-1,0.7-2,1.4-3.1,2
			c-1.3,0.8-2.2,0.7-3.4-0.2c-2.3-1.8-4.7-3.6-7.1-5.3c-1-0.7-1.4-1.6-1.4-2.7C345.4,199.7,345.6,198.4,345.1,197.1z"/>
		<path class="st12" d="M414.9,197.7c1.8,0.6,3.7,0.9,5.6,1.3c1,0.2,1.4,0.5,1.4,1.5c0,2.6,0.1,5.2-0.9,7.7
			c-2.3-1.5-4.5-3.3-6.7-4.9c-0.4-0.3-0.7-0.7-0.7-1.2c0,0,0,0,0,0c-0.3-1.5,0-2.9-0.1-4.4C414.1,197.6,414.5,197.8,414.9,197.7z"/>
		<path class="st17" d="M370.9,105.7c-0.3,0.9-0.4,1.7,0.1,2.5c0.2,0.3,0.5,0.7,0.6,1.1c0.2,1.4,1,2.6,2.1,3.7
			c0.2,0.2,0.1,0.4,0,0.6c-0.2-0.2-0.5-0.4-0.7-0.6c0-0.4-0.3-0.5-0.7-0.5c-0.1-0.1-0.2-0.1-0.3-0.2c-0.1-0.1-0.2-0.1-0.2-0.2
			c0,0,0,0,0,0c-0.1-0.1-0.2-0.1-0.3-0.2c0,0,0,0,0,0c-0.1-0.1-0.2-0.1-0.3-0.2c-0.6-0.4-1-0.8-0.9-1.5c0.1-0.3,0.2-0.6-0.1-0.9
			c0-0.5,0.1-1,0.1-1.5c0-0.1,0-0.1,0-0.1c-1.4,1-2.4,1-3.8,0c-1.1-0.8-2.2-1.7-3.3-2.5c-0.9-0.6-1.3-1.4-1.2-2.4c0.1-1,0-2,0.1-3
			c0.2-0.1,0.3-0.3,0.5-0.4C365.3,101.5,368.1,103.6,370.9,105.7z"/>
		<path class="st18" d="M316.3,143.9c1.2,0.3,2,1.2,2.9,1.9c2.9,2.1,5.7,4.2,8.6,6.3c0.7,0.5,1.4,0.9,2.4,0.9
			c0.1,0.4-0.2,0.9,0.2,1.2c0,0.5,0.3,0.9,0.6,1.3c0.6,0.7,1.6,1.1,2,2c0,0.2-0.2,0.4-0.5,0.4c-0.8-0.5-1.5-1-2.3-1.5
			c-2.1-1.9-4.6-3.5-6.9-5.3c-1.7-1.3-3.4-2.6-5.2-3.9c-0.9-0.6-1.4-1.3-1.4-2.3C316.8,144.5,316.5,144.3,316.3,143.9z"/>
		<path class="st18" d="M344.3,120.7c-0.1-1-0.8-1.7-1.6-2.3c-3.6-2.8-7.3-5.5-11-8.3c-0.4-0.3-0.8-0.6-1-1c0-0.3,0-0.7,0.1-1
			c0.1,0.5,0.4,0.9,0.8,1.2c4.4,3.3,8.9,6.6,13.3,9.9c0.6,0.4,1.2,0.7,2,0.7c-0.2,0.6-0.1,1.1,0.5,1.5c1.8,1.4,3.6,2.7,5.5,4
			c0.4,0.3,0.8,0.7,1.2,1c-0.7,0-1.4,0-2,0c-1.4-1.5-3.2-2.6-4.7-4c-0.2-0.2-0.6-0.3-0.9-0.3c-0.1,0-0.1,0-0.2,0
			C345.7,121.6,345.2,121,344.3,120.7z"/>
		<path class="st16" d="M330.1,177.8c0.2,0,0.4,0,0.6,0c-0.4,0.9,0.6,1.5,0.9,2.2c0.1,0.1,0.2,0.2,0.2,0.2l0,0
			c0.1,0.1,0.2,0.1,0.2,0.2l0,0c0.1,0.1,0.2,0.1,0.2,0.2l0,0c0.6,1,1.3,2,1.2,3.3c-0.2,1.2-0.4,2.4-0.8,3.6
			c-0.3,0.9-1.1,0.6-1.8,0.7c0,0,0,0,0,0c0.1-0.6-0.3-1.1-0.8-1.5c-0.1-0.3-0.1-0.6,0-1c0.5-0.7,0.5-1.4,0-2.1
			c-0.1-0.5-0.1-1.1,0-1.6c0.1,0,0.1-0.1,0.2-0.1c-0.1,0-0.1-0.1-0.2-0.1C330,180.6,330,179.2,330.1,177.8z"/>
		<path class="st15" d="M428.4,140.2c-0.1,0-0.1,0-0.2,0.1c-0.1,0.1-0.2,0.1-0.2,0.2c0,0,0,0,0,0c-0.1,0.1-0.2,0.1-0.3,0.2
			c0,0,0,0,0,0c-0.3,0-0.5,0.2-0.7,0.4c0,0,0,0,0,0c-0.1,0.1-0.2,0.1-0.2,0.2c0,0,0,0,0,0c-0.3,0-0.5,0.2-0.7,0.4c0,0,0,0,0,0
			c-0.3,0.1-0.5,0.1-0.8,0.2c1.5-2.9,3.1-5.9,4.6-8.8c1.3,0.4,0.9,1.5,1.1,2.3c0,1.2-0.1,2.4-0.1,3.6c-0.9,0-1.6,0.5-2.3,1
			C428.5,140.1,428.5,140.2,428.4,140.2z"/>
		<path class="st15" d="M380.6,123.2c-1.9,1.2-4.1,2.1-5.9,3.5c-0.4,0.3-0.8,0.3-1.3,0.4c0,0-0.1-0.1-0.1-0.1c0.2-0.4,0.9-0.5,1-0.9
			c0.1,0,0.1-0.1,0.2-0.1c0.1,0.1,0.2,0,0.2-0.1c0,0,0,0,0,0c0.1-0.1,0.2-0.1,0.3-0.2c0.1-0.1,0.3-0.2,0.4-0.3
			c0.3,0,0.4-0.1,0.5-0.3c0.1,0,0.1,0,0.2-0.1c0.2,0,0.4-0.1,0.5-0.3c0,0,0,0,0,0c0.2,0,0.3-0.1,0.4-0.2c0,0,0.1,0,0.1,0
			c0.3,0,0.5-0.1,0.6-0.4c0,0,0.1,0,0.1,0c0.5,0,0.8-0.4,1.3-0.5C379.5,123.2,380,123,380.6,123.2z"/>
		<path class="st18" d="M362.5,99.4c-0.2,0.1-0.3,0.3-0.5,0.4c-0.2-0.6-0.8-0.9-1.3-1.3c-0.5-0.4-1.1-0.7-1.3-1.3
			C360.5,97.9,361.6,98.6,362.5,99.4z"/>
		<path class="st20" d="M345.3,193.7c1.3-0.8,2.5-1.7,3.9-2.2c-1.1,0.9-2.4,1.6-3.6,2.3C345.5,193.7,345.4,193.7,345.3,193.7z"/>
		<path class="st21" d="M379,123.4c-0.4,0.2-0.7,0.5-1.3,0.5c0.2-0.6,1-0.7,1.4-1.2C379.1,123,379.1,123.2,379,123.4z"/>
		<path class="st15" d="M360.7,213.6c0.6,0.4,0.6,0.8,0,1.2C360.7,214.4,360.7,214,360.7,213.6z"/>
		<path class="st12" d="M330.1,186.8c0.4,0.4,0.9,0.9,0.8,1.5c-0.4-0.2-0.6-0.5-0.7-0.9c0-0.1,0-0.2,0-0.3
			C330.2,187,330.1,186.9,330.1,186.8z"/>
		<path class="st12" d="M330.1,183.7c0.6,0.7,0.5,1.4,0,2.1C330.1,185.1,330.1,184.4,330.1,183.7z"/>
		<path class="st18" d="M372.3,112.6c0.4,0,0.7,0,0.7,0.5C372.6,113,372.4,112.9,372.3,112.6z"/>
		<path class="st18" d="M370.2,109.4c0.3,0.3,0.1,0.6,0.1,0.9C370.1,110,370.2,109.7,370.2,109.4z"/>
		<path class="st18" d="M315.6,143.1c0.2,0.1,0.3,0.2,0.3,0.4C315.6,143.5,315.6,143.3,315.6,143.1z"/>
		<path class="st19" d="M315.4,166.3c0.1,0.1,0.1,0.3,0.2,0.4C315.5,166.6,315.4,166.5,315.4,166.3z"/>
		<path class="st15" d="M433.3,192.3c0.2,0,0.4,0.1,0.4,0.3C433.6,192.5,433.4,192.4,433.3,192.3z"/>
		<path class="st18" d="M359.3,96.9c0,0.1,0.1,0.2,0.1,0.3C359.4,97.1,359.4,97,359.3,96.9z"/>
		<path class="st15" d="M381.4,123.4c-0.1-0.1-0.3-0.1-0.4-0.2C381.2,123.3,381.4,123.3,381.4,123.4
			C381.5,123.3,381.5,123.4,381.4,123.4z"/>
		<path class="st11" d="M360.9,207.1c-0.1,0.1-0.1,0.2-0.2,0.4c0-0.1-0.1-0.2-0.1-0.3C360.7,207.2,360.8,207.2,360.9,207.1z"/>
		<path class="st12" d="M330.1,181.9c0.1,0,0.1,0.1,0.2,0.1c-0.1,0-0.1,0.1-0.2,0.1C330.1,182.1,330.1,182,330.1,181.9z"/>
		<path class="st18" d="M316,143.7c0.2,0,0.3,0,0.2,0.2C316.1,143.9,316,143.9,316,143.7z"/>
		<path class="st18" d="M315.8,143.5c0.2,0,0.3,0,0.2,0.2C315.9,143.7,315.8,143.7,315.8,143.5z"/>
		<path class="st16" d="M330.2,187.1c0,0.1,0,0.2,0,0.3C330.1,187.3,330.1,187.2,330.2,187.1z"/>
		<path class="st19" d="M315.6,166.7c0.1,0,0.2,0.1,0.2,0.2C315.6,166.9,315.6,166.8,315.6,166.7z"/>
		<path class="st18" d="M315.6,119.8c0.2,0,0.2,0.1,0.2,0.2C315.6,120,315.5,119.9,315.6,119.8z"/>
		<path class="st18" d="M315.3,119.5c0.1,0.1,0.2,0.1,0.2,0.2C315.3,119.8,315.3,119.7,315.3,119.5z"/>
		<path class="st15" d="M433.7,192.5c0.2,0,0.3,0.1,0.3,0.2C433.9,192.7,433.8,192.6,433.7,192.5z"/>
		<path class="st18" d="M315.1,119.3c0.1,0.1,0.2,0.2,0.3,0.2C315.2,119.6,315.1,119.5,315.1,119.3z"/>
		<path class="st18" d="M371.8,112.2c0.1,0.1,0.2,0.1,0.2,0.2C371.9,112.4,371.8,112.3,371.8,112.2z"/>
		<path class="st18" d="M371.5,112.1c0.1,0.1,0.2,0.1,0.3,0.2C371.7,112.2,371.6,112.1,371.5,112.1z"/>
		<path class="st18" d="M371.2,111.8c0.1,0.1,0.2,0.1,0.3,0.2C371.4,112,371.3,111.9,371.2,111.8z"/>
		<path class="st15" d="M380.8,88.1c0.2,0,0.3,0.1,0.2,0.2C380.9,88.3,380.8,88.2,380.8,88.1z"/>
		<path class="st15" d="M380.5,87.9c0.1,0,0.3,0,0.3,0.2C380.6,88.1,380.6,88,380.5,87.9z"/>
		<path class="st13" d="M413.7,201.9C413.7,201.9,413.7,201.9,413.7,201.9C413.7,201.9,413.7,201.9,413.7,201.9z"/>
		<path class="st15" d="M360.9,215.4c0.1,0.1,0.1,0.2,0.2,0.3C361,215.6,360.9,215.5,360.9,215.4z"/>
		<path class="st21" d="M435.8,134.4c-0.5,0.3-0.9,0.6-1.5,0.6c-1.7,0-2.5-0.9-2.2-2.7c0.2-1,0-1.8-0.3-2.6c0-0.1,0-0.1,0.1-0.1
			c0.1-0.1,0.1-0.3,0.2-0.4c0.1-0.3,0.3-0.7,0.5-1c0.8-1.5,0.8-1.5-1.2-1.5c-3.5,0-7,0-10.6-0.1c-0.5-0.7-1.7-0.9-2.1-1.8
			c2.1,0.1,4.1-0.2,6.2-0.3c3.3-0.2,6.5,0.3,9.5,1.7c1.4,0.7,2.2,2,2.5,3.3c0.3,1.4,0.3,2.9-0.1,4.3c0,0,0,0,0,0
			c-0.1,0.1-0.1,0.1-0.2,0.2c0,0,0,0,0,0c-0.2,0-0.4,0-0.5,0.2c0,0,0,0,0,0C436,134.3,435.9,134.3,435.8,134.4z"/>
		<path class="st21" d="M416.7,123.2c-0.1-0.1-0.2-0.1-0.2-0.2c0.1-0.7-0.2-1.1-1.1-1.1c-0.1,0-0.2-0.2-0.4-0.3
			c1.2,0.1,2.3-0.1,3.3-0.9c0.2-0.2,0.5-0.2,0.8-0.2l0,0c-0.2,0.4-0.7,0.6-1.1,0.8C417.2,121.8,416.7,122.4,416.7,123.2z"/>
		<path class="st21" d="M426.3,116.1c-0.5,0.8-1.6,1-2.4,1.5C424.6,116.9,425.3,116.3,426.3,116.1L426.3,116.1z"/>
		<path class="st21" d="M421.7,118.9c0.4-0.6,1.1-0.9,1.7-1.1C423,118.5,422.4,118.8,421.7,118.9L421.7,118.9z"/>
		<path class="st21" d="M421,119.4c-0.4,0.4-0.4,0.4-1,0.7C420.2,119.5,420.2,119.5,421,119.4C421,119.3,421,119.4,421,119.4z"/>
		<path class="st21" d="M421.7,118.9c-0.1,0.3-0.4,0.4-0.7,0.4c0,0,0,0,0,0C421,118.9,421.3,118.9,421.7,118.9
			C421.7,118.9,421.7,118.9,421.7,118.9z"/>
		<path class="st21" d="M417.4,123.7c-0.3,0-0.6-0.1-0.6-0.5C417.2,123.2,417.4,123.3,417.4,123.7z"/>
		<path class="st21" d="M419.1,120.6c0-0.2,0-0.3,0.3-0.3c0,0,0.1,0,0.1,0.1C419.5,120.5,419.3,120.5,419.1,120.6
			C419.1,120.6,419.1,120.6,419.1,120.6z"/>
		<path class="st21" d="M426.3,116.1c0-0.1,0.1-0.2,0.1-0.3C426.6,116,426.4,116,426.3,116.1C426.3,116.1,426.3,116.1,426.3,116.1z"
			/>
		<path class="st21" d="M418.8,124.7c-0.2,0-0.4-0.1-0.4-0.3C418.6,124.4,418.8,124.5,418.8,124.7z"/>
		<path class="st21" d="M418.4,124.5c-0.2,0-0.3-0.1-0.3-0.2C418.2,124.3,418.4,124.3,418.4,124.5z"/>
		<path class="st21" d="M417.9,124.1c-0.2,0-0.3-0.1-0.3-0.2C417.8,123.9,417.9,124,417.9,124.1z"/>
		<path class="st21" d="M417.6,123.9c-0.1-0.1-0.2-0.1-0.2-0.2C417.6,123.7,417.6,123.7,417.6,123.9z"/>
		<path class="st20" d="M431.9,129.5c-0.1,0-0.1,0.1-0.1,0.1c-0.8,1.1-1.3,2.3-1.9,3.5c-1.5,2.9-3.1,5.9-4.6,8.8
			c-1.3,2.5-2.5,4.9-3.8,7.4c-2,3.8-4.1,7.6-6.1,11.4c-0.9,1.6-1.7,3.3-2.5,4.9c-1.3,2.6-2.7,5.2-4,7.8c-1.4,2.7-2.9,5.4-4.3,8.1
			c-1.4,2.6-2.7,5.2-4,7.8c-0.2,0.4-0.4,0.8-0.9,1c-0.3,0-0.6,0-0.9,0.1c-2.5-0.1-5-0.1-7.5,0c-0.1,0-0.3-0.1-0.4-0.1
			c-1.1-1.6-1.8-3.5-2.7-5.2c-1.4-2.5-2.5-5.1-4-7.5c-1.3-2.5-2.5-5-3.8-7.5c-0.2-0.3-0.3-0.7-0.8-0.7c-0.5,0-0.6,0.4-0.7,0.7
			c-0.7,1.3-1.4,2.6-2,4c-1.3,2.8-2.9,5.5-4.1,8.3c-0.2,0.4-0.4,0.7-0.6,1.1c-1.2,2.3-2.2,4.6-3.5,6.8c-0.2,0-0.3,0.1-0.5,0.1
			c-1.6,0-3.2,0-4.8,0c-3,0.6-4.5-0.8-5.2-3.2c0-0.1-0.2-0.2-0.2-0.3c-0.4-1-1-2-1.6-2.9c0,0,0,0,0,0c-0.1-0.1-0.2-0.3-0.3-0.4
			c0,0,0,0,0,0c0,0,0-0.1-0.1-0.1c0-0.3-0.2-0.5-0.4-0.7c-1.9-3.8-3.9-7.6-6-11.4c-1-2.1-2.1-4.2-3.3-6.2c-0.5-1.1-1.1-2.2-1.8-3.2
			c-0.1-0.1-0.2-0.3-0.2-0.4l0,0c0-0.2,0-0.3-0.2-0.4l0,0c0-0.2-0.1-0.3-0.3-0.4l0,0c0-0.2,0-0.3-0.2-0.4l0,0
			c-0.2-0.6-0.6-1.1-1-1.6l0,0c-1.6-3.3-3.3-6.6-5.1-9.8c-2-4.1-4.2-8.1-6.4-12.1c-0.4-0.7-0.7-1.3-1.1-2c-1.4-2.6-2.7-5.2-4.1-7.8
			c0.2-0.1,0.5-0.3,0.7-0.4c3.2,0,6.3,0,9.5,0c1.5,0,3.1,0,4.6,0.1c0.5,0.3,0.7,0.8,1,1.2c1.4,2.6,2.8,5.3,4.2,7.9
			c0.2,0.3,0.2,0.7,0.7,0.8c0,0.2,0,0.5,0.1,0.7c0.9,1.6,1.8,3.3,2.7,4.9c0.8,1.6,1.6,3.2,2.4,4.8c2.2,4.2,4.4,8.4,6.6,12.6
			c2,3.9,3.9,7.7,6,11.8c0.8-1.9,1.6-3.5,2.3-5c0.5-1.1,0.7-2.3,0.3-3.5c-0.8-2.2-2-4.4-3.2-6.5c-0.1-0.5-0.3-0.9-0.6-1.3
			c-1.4-2.6-2.7-5.2-4.1-7.7c-1.7-3.1-3.2-6.2-5.1-9.2c0,0,0-0.1,0-0.1c0-0.2,0-0.4-0.2-0.5c0-0.1,0-0.1,0-0.2
			c-1.7-3.2-3.3-6.3-5-9.5c-0.3-0.6-0.5-0.9,0.6-1c1-0.1,1.9,0,2.9-0.2c0.7,0,1.4,0,2,0c2.2,0.2,4.4,0,6.6,0.1
			c0.8,0,1.5-0.1,2.3,0.2c0,0.1,0.1,0.2,0.1,0.3c0.8,1.5,1.6,3,2.4,4.5c0.1,0.2,0.2,0.4,0.3,0.7c2.7,5.2,5.4,10.4,8.1,15.6
			c0.5,0.9,0.8,2,1.6,2.8c0.8,2.1,2,4,3,6c0.3,0.5,0.5,0.4,0.7-0.1c0.4-0.8,0.8-1.6,1.1-2.4c0.1-0.1,0.2-0.2,0.2-0.3
			c2.3-4.6,4.5-9.1,6.8-13.7c1.5-3,2.9-6,4.4-9c0.8-1,1.2-2.2,1.8-3.3c0.2-0.4,0.4-1,0.9-1.2c4.6,0,9.3,0,13.9-0.1
			c0.5,0.3,0.5,0.8,0.2,1.2c-0.5,1.1-1.1,2.1-1.6,3.2c-1.3,2.6-2.6,5.2-3.9,7.7c-1.3,2.5-2.5,4.9-3.8,7.4c-2.3,4.5-4.6,9-6.9,13.5
			c-1.5,2.8-1,5.5,0.7,8.1c0.5,1.2,1.1,2.4,2,3.7c1.2-2.3,2.2-4.5,3.2-6.6c1.1-3,3-5.7,4.4-8.7c0.9-1.9,1.9-3.9,2.8-5.8
			c0.7-1.4,1.5-2.8,2.2-4.2c1.5-3,3.1-6.1,4.6-9.1c1.1-1.8,2-3.8,3-5.7c0.7-1.4,1.5-2.9,2.2-4.3c0.2-0.5,0.7-0.6,1.2-0.7
			c0.7,0,1.3,0,2,0c3.5,0,7,0,10.6,0.1c1.9,0,1.9,0,1.2,1.5c-0.2,0.3-0.3,0.7-0.5,1C432,129.2,432,129.4,431.9,129.5z"/>
		<path class="st15" d="M391.8,131.1c-1.4,3-2.9,6-4.4,9c-2.3,4.6-4.5,9.1-6.8,13.7c-0.1,0.1-0.2,0.2-0.2,0.3
			c-0.4-0.3-0.8-0.6-1.2-0.9c-1.2-0.9-2.3-1.9-3.7-2.6c-0.8-0.8-1.1-1.8-1.6-2.8c-2.7-5.2-5.4-10.4-8.1-15.6
			c-0.1-0.2-0.2-0.4-0.3-0.7c1.3-0.7,2.5-1.4,3.7-2.3c0.2,0,0.3-0.1,0.3-0.2c0.3,0,0.6-0.1,0.7-0.4c0,0,0,0,0,0
			c0.2-0.1,0.6-0.1,0.7-0.4c0,0,0.1,0,0.1,0c0.1,0,0.2,0,0.2-0.2c0,0,0,0,0,0c0.3,0,0.6-0.1,0.7-0.4c0.1-0.1,0.2-0.1,0.3-0.2
			c0.2,0,0.4,0,0.4-0.2c0,0,0-0.1,0-0.1c0.3-0.1,0.6-0.1,0.9-0.2c0,0,0.1,0.1,0.1,0.1c-0.6,0.8-1.5,1.3-2.4,1.9
			c-2,1.4-2.2,1.7-1.2,3.7c2,3.9,4.1,7.8,6.7,11.5c0.1,0.1,0.2,0.2,0.2,0.4c0.9,1.6,2.1,1.7,3.4,0.3c0.5-0.6,1-1.2,1.3-1.9
			c1.4-3.6,3.4-7,4.4-10.7c0.3-1.3,0.1-2.7,0.8-3.9c0.2-0.3,0.3-0.5,0.5-0.7C388.7,128.7,390.2,129.9,391.8,131.1z"/>
		<path class="st15" d="M399.4,146.1c1.3-2.5,2.5-4.9,3.8-7.4c0.3,0.8,0.9,1.2,1.8,1.4c1.5,0.4,2.5-0.5,3.7-1
			c1.3-0.6,2.4-1.5,3.8-1.9c-1.5,3-3.1,6.1-4.6,9.1c-0.7,1.4-1.5,2.8-2.2,4.2c-0.2,0-0.4,0-0.7,0c-0.1-0.1-0.2-0.1-0.2-0.2
			c-0.1-0.1-0.2-0.1-0.2-0.2c0,0,0,0,0,0c-0.1-0.1-0.2-0.1-0.2-0.2c0,0,0,0,0,0c-0.1-0.2-0.2-0.3-0.5-0.4c-0.9-0.7-1.8-1.4-2.7-2.1
			C400.6,146.8,399.9,146.5,399.4,146.1z"/>
		<path class="st11" d="M405,140c-0.9-0.1-1.5-0.6-1.8-1.4c1.3-2.6,2.6-5.2,3.9-7.7c0.4,1,0.4,1.9,0.1,2.9c-0.3,1-0.4,2.1-0.3,3.2
			C406.9,138.4,407.1,139.7,405,140z"/>
		<path class="st11" d="M408.4,126.5c-4.6,0-9.3,0-13.9,0.1c0.2-0.4,0.6-0.3,0.9-0.3c4.1,0,8.1,0,12.2,0
			C407.9,126.3,408.2,126.2,408.4,126.5z"/>
		<path class="st15" d="M384.8,203.4c0.4,0.3,0.3,0.7,0.2,1.1C384.6,204.1,384.8,203.7,384.8,203.4z"/>
		<path class="st15" d="M382,201.1c0.2,0,0.4,0.1,0.5,0.3C382.2,201.4,382,201.3,382,201.1z"/>
		<path class="st15" d="M379.2,199c0.1,0.1,0.2,0.1,0.2,0.2C379.4,199.1,379.3,199,379.2,199z"/>
		<path class="st15" d="M379.4,199.2c0.1,0.1,0.2,0.1,0.2,0.2C379.6,199.3,379.5,199.2,379.4,199.2z"/>
		<path class="st15" d="M379.7,199.4c0.1,0.1,0.2,0.1,0.3,0.2C379.9,199.5,379.8,199.4,379.7,199.4z"/>
		<path class="st15" d="M380.6,200c0.1,0.1,0.2,0.1,0.2,0.2C380.8,200.1,380.7,200,380.6,200z"/>
		<path class="st15" d="M380.8,200.2c0.1,0.1,0.2,0.1,0.2,0.2C381,200.3,380.9,200.3,380.8,200.2z"/>
		<path class="st15" d="M381.1,200.4c0.1,0.1,0.2,0.1,0.2,0.2C381.2,200.5,381.2,200.5,381.1,200.4z"/>
		<path class="st15" d="M381.3,200.6c0.1,0.1,0.2,0.1,0.3,0.2C381.5,200.7,381.4,200.7,381.3,200.6z"/>
		<path class="st15" d="M382.5,201.4c0.1,0.1,0.2,0.1,0.2,0.2C382.6,201.5,382.5,201.5,382.5,201.4z"/>
		<path class="st15" d="M382.7,201.6c0.1,0.1,0.2,0.1,0.3,0.2C382.9,201.7,382.8,201.7,382.7,201.6z"/>
		<path class="st15" d="M382.9,201.8c0.1,0.1,0.2,0.1,0.3,0.2C383.2,201.9,383,201.9,382.9,201.8z"/>
		<path class="st15" d="M383.6,202.2c0.1,0.1,0.2,0.1,0.3,0.2C383.8,202.4,383.7,202.3,383.6,202.2z"/>
		<path class="st15" d="M384.1,202.6c0.1,0.1,0.2,0.2,0.2,0.2C384.2,202.8,384.2,202.7,384.1,202.6z"/>
		<path class="st21" d="M369.1,129.3c-1.2,0.9-2.4,1.6-3.7,2.3c-0.8-1.5-1.6-3-2.4-4.5c0.3-0.6,0.8-0.7,1.4-0.4
			c0.9,0.5,1.9,0.9,2.4,1.8C367.3,129.4,368.1,129.7,369.1,129.3z"/>
		<path class="st21" d="M362.9,126.8c-0.7-0.3-1.5-0.2-2.3-0.2c-2.2-0.1-4.4,0.1-6.6-0.1c-0.4-0.3-0.8-0.7-1.2-1
			c2.9-0.7,5.8-0.7,8.6,0.2C362.1,125.9,362.9,125.9,362.9,126.8z"/>
		<path class="st21" d="M373.3,127c-0.3,0.1-0.6,0.1-0.9,0.2c0.5-0.6,1.1-0.9,1.9-1.1C374.2,126.5,373.5,126.6,373.3,127z"/>
		<path class="st21" d="M370.1,128.7c-0.1,0.3-0.3,0.4-0.7,0.4C369.5,128.7,369.8,128.7,370.1,128.7z"/>
		<path class="st21" d="M377.7,124c-0.1,0.3-0.4,0.3-0.6,0.4C377.1,124,377.4,124,377.7,124z"/>
		<path class="st21" d="M376,125c-0.1,0.2-0.2,0.3-0.5,0.3C375.5,125.1,375.7,125,376,125z"/>
		<path class="st21" d="M370.8,128.3c-0.1,0.3-0.4,0.3-0.7,0.4C370.2,128.3,370.5,128.3,370.8,128.3z"/>
		<path class="st21" d="M371.7,127.7c-0.1,0.3-0.4,0.4-0.7,0.4C371.2,127.8,371.4,127.7,371.7,127.7z"/>
		<path class="st21" d="M376.7,124.6c-0.1,0.2-0.2,0.3-0.5,0.3C376.2,124.7,376.4,124.6,376.7,124.6z"/>
		<path class="st21" d="M377,124.4c0,0.2-0.2,0.2-0.4,0.2C376.7,124.5,376.8,124.4,377,124.4z"/>
		<path class="st21" d="M372.4,127.2c0,0.2-0.2,0.2-0.4,0.2C372.1,127.3,372.2,127.3,372.4,127.2z"/>
		<path class="st21" d="M371,128.1c0,0.1-0.1,0.2-0.2,0.2C370.9,128.2,371,128.1,371,128.1z"/>
		<path class="st21" d="M374.7,125.8c0,0.1-0.1,0.1-0.2,0.1C374.6,125.9,374.7,125.8,374.7,125.8z"/>
		<path class="st21" d="M375,125.6c-0.1,0.1-0.2,0.1-0.3,0.2C374.9,125.7,374.9,125.7,375,125.6z"/>
		<path class="st17" d="M371.9,200.5c0.4,1.6,0,2.7-1.7,3.6c-1.9,0.9-3.6,2.1-5.4,3.1c-1.3,0.8-2.3,0.7-3.5-0.3
			c1.8-1.2,3.5-2.3,5.3-3.4c1.1-0.7,2.2-1.3,3.2-2c0.1-0.1,0.2-0.2,0.2-0.2c0,0,0,0,0,0c0.2,0,0.4,0,0.5-0.2c0,0,0,0,0,0
			c0.1-0.1,0.2-0.1,0.2-0.2c0,0,0,0,0,0c0.2,0,0.4,0,0.5-0.2c0,0,0,0,0,0C371.5,200.6,371.7,200.5,371.9,200.5z"/>
		<path class="st15" d="M356.2,183.9c0.6,0.9,1.2,1.9,1.6,2.9c-0.6-0.1-1,0.3-1.5,0.3C356.7,186.1,356.2,185,356.2,183.9z"/>
		<path class="st20" d="M351.1,190.3c0.6-0.5,1.3-1,2.1-1.2C352.6,189.6,352,190.1,351.1,190.3z"/>
		<path class="st20" d="M349.2,191.5c0.3-0.8,1.2-0.9,1.9-1.2C350.7,190.9,350,191.2,349.2,191.5z"/>
		<path class="st14" d="M371.9,200.5c-0.2,0-0.4,0.1-0.6,0.1c0.1-0.5,0.5-0.6,0.9-0.6C372.3,200.3,372,200.3,371.9,200.5z"/>
		<path class="st14" d="M373.3,199c-0.1,0.1-0.1,0.3-0.2,0.4C373.2,199.3,373.3,199.1,373.3,199z"/>
		<path class="st14" d="M372.7,199.8c-0.1,0.2-0.2,0.3-0.5,0.2C372.3,199.8,372.5,199.8,372.7,199.8z"/>
		<path class="st14" d="M371.3,200.6c-0.1,0.2-0.3,0.2-0.5,0.2C370.9,200.6,371.1,200.6,371.3,200.6z"/>
		<path class="st14" d="M370.6,201c-0.1,0.2-0.3,0.2-0.5,0.2C370.2,201.1,370.4,201,370.6,201z"/>
		<path class="st14" d="M373.2,199.4c-0.1,0.1-0.2,0.1-0.2,0.2C373,199.5,373.1,199.5,373.2,199.4z"/>
		<path class="st14" d="M372.9,199.6c-0.1,0.1-0.2,0.1-0.2,0.2C372.8,199.7,372.9,199.7,372.9,199.6z"/>
		<path class="st14" d="M370.9,200.8c-0.1,0.1-0.2,0.1-0.2,0.2C370.7,201,370.8,200.9,370.9,200.8z"/>
		<path class="st14" d="M370.2,201.2c-0.1,0.1-0.2,0.2-0.2,0.2C370,201.4,370.1,201.3,370.2,201.2z"/>
		<path class="st14" d="M344.3,120.7c0.9,0.3,1.5,0.9,2,1.5c0,0.1,0,0.3,0,0.4c-0.2,3.5,0.4,7.1,0,10.6c-0.2,0-0.4-0.1-0.4-0.3
			c-0.8-1.8-1.9-3.4-3-5.1c-0.8-1.4-0.9-3.1-2.2-4.3c0.5-0.7,1.3-0.9,2-1.3C343.3,121.8,344,121.4,344.3,120.7z"/>
		<path class="st9" d="M340.7,123.6c1.3,1.2,1.3,2.9,2.2,4.3c1,1.7,2.2,3.3,3,5.1c0.1,0.2,0.3,0.2,0.4,0.3c0.4,1.1,0.2,2.2,0.2,3.2
			c-0.5-0.1-0.5-0.5-0.7-0.8c-1.4-2.6-2.8-5.3-4.2-7.9c-0.2-0.5-0.4-0.9-1-1.2c-0.2-0.4-0.7-0.2-1-0.3c-1.1,0-2.2,0-3.4,0
			C337.7,125.4,339.1,124.3,340.7,123.6z"/>
		<path class="st14" d="M336,126.5c-3.2,0-6.3,0-9.5,0c0.3-0.3,0.6-0.2,1-0.2c2.8,0,5.7,0,8.5,0C336,126.3,336,126.4,336,126.5z"/>
		<path class="st18" d="M336,126.5c0-0.1,0-0.1,0-0.2c0.1,0,0.2,0,0.2,0c1.1,0,2.2,0,3.4,0c0.4,0,0.8-0.1,1,0.3
			C339.1,126.5,337.6,126.5,336,126.5z"/>
		<path class="st15" d="M346.2,165c1.2,2,2.3,4.1,3.3,6.2c-1.3-0.6-2.1-1.7-3.5-2.2c-0.1-0.1-0.3-0.1-0.4,0c-0.2,0-0.5,0-0.7,0
			c-0.2-0.5-0.1-1.2-0.9-1.4c-0.3-1.6-1.7-2.4-3.1-3.2c-0.1-0.1-0.3-0.1-0.4-0.2c0-0.3-0.2-0.5-0.5-0.6c-0.8-0.7-1.7-1.4-2.5-2.1
			c0.1-0.2,0.1-0.3-0.1-0.4c-0.9-1.3-2.3-2.2-3.5-3.3c-0.2-0.2-0.5-0.3-0.8-0.3c-0.4-0.9-1.4-1.3-2-2c-0.3-0.4-0.6-0.8-0.6-1.3
			c0.5,0.4,1,0.8,1.5,1.1c3.6,2.6,7.1,5.2,10.7,7.8C343.7,164,344.6,165,346.2,165z"/>
		<path class="st21" d="M340.9,164.4c1.4,0.8,2.8,1.6,3.1,3.2c-0.2,0.2-0.5,0.4-0.7,0.7c-0.9,0-1.5-0.4-1.7-1.1
			C341.3,166.3,340.8,165.4,340.9,164.4z"/>
		<path class="st12" d="M343.3,168.3c0.2-0.2,0.5-0.4,0.7-0.7c0.9,0.2,0.7,0.9,0.9,1.4c-0.3,0.2-0.5,0.3-0.8,0.5
			c-0.8,0.4-1.5,0.8-2.3,1.2c-0.2,0-0.4,0-0.5,0.2c-0.1,0.1-0.1,0.1-0.2,0.2c-1.1,0-0.5-0.6-0.5-1.1c0,0,0,0,0,0
			c0.1-0.1,0.2-0.1,0.2-0.2c0,0,0,0,0,0c0.2,0,0.4,0,0.4-0.2c0,0,0,0,0,0c0.1-0.1,0.2-0.1,0.2-0.2
			C342.1,169.1,342.8,168.9,343.3,168.3z"/>
		<path class="st11" d="M333,157.5c0.3,0,0.6,0,0.8,0.3c1.2,1.1,2.6,2,3.5,3.3c0.1,0.2,0.1,0.3,0.1,0.4c-1.7-1.1-3.3-2.4-4.8-3.6
			C332.9,157.9,333,157.8,333,157.5z"/>
		<path class="st21" d="M340,163.6c0.3,0.1,0.6,0.2,0.5,0.6C340,164.3,340,164,340,163.6z"/>
		<path class="st19" d="M341.3,169.7c-0.1,0.2-0.2,0.2-0.4,0.2C341,169.8,341.2,169.7,341.3,169.7z"/>
		<path class="st19" d="M341.6,169.5c-0.1,0.1-0.2,0.1-0.2,0.2C341.4,169.6,341.5,169.6,341.6,169.5z"/>
		<path class="st19" d="M340.9,169.9c-0.1,0.1-0.2,0.1-0.2,0.2C340.7,170.1,340.8,170,340.9,169.9z"/>
		<path class="st13" d="M403.6,193.3c1.2,0.9,2.5,1.8,3.7,2.7c1.5,1.3,1.3,2.2-0.3,3.2c-4.3,2.6-8.6,5.2-12.9,7.8
			c-0.9,0.6-2,0.5-2.9-0.1c-2.7-2-5.5-4-8.2-5.9c-0.9-0.6-1.7-1.2-2.6-1.9c-0.8-0.6-1.5-1.2-0.9-2.2c2.2-1,4.2-2.4,6.2-3.7
			c0.3-0.1,0.6-0.3,0.9-0.4c0.5-0.1,1,0.1,1.3,0.4c0.5,0.5,1,0.9,1.5,1.3c2.8,2.3,6.1,2.6,9.7,1.7
			C401,195.6,402.1,194.3,403.6,193.3z"/>
		<path class="st21" d="M386.6,192.7c-0.3,0.1-0.6,0.3-0.9,0.4c-0.6-0.6-1.2-1.2-1.5-1.9c-0.6-1.4-1.6-2.6-2.8-3.6
			c-1-0.8-1.5-0.7-2.2,0.3c-0.7,1-1.2,2.1-2,3.1c-1,1.2-1.3,2.7-2.4,3.9c-1.6-0.8-2.8-2.1-4.2-3c-0.7-0.5-1.3-1-2-1.5
			c1.3-2.2,2.4-4.5,3.5-6.8c0.2-0.4,0.4-0.7,0.6-1.1c0.9,0,1-0.6,1.1-1.1c0.5-2,2.2-3.4,3.7-4.8c1.5-1.4,4.5-1.1,5.6,0.5
			c0.3,0.4,0.6,0.5,1,0.5c1.5,2.5,2.6,5,4,7.5c0.9,1.7,1.6,3.6,2.7,5.2C389.3,190.8,388,191.8,386.6,192.7z"/>
		<path class="st16" d="M410.2,174.4c1.8,0.8,3,2,3.8,3.6c-1.2,0.2-1.8,0.7-2.3,1.7c-1.5,3.4-3.2,6.8-4.8,10.2
			c-0.3,0.7-0.5,1.6-0.4,2.4c-1.3-1.2-3.1-1.9-4.2-3.3c-0.2-0.2-0.6-0.4-0.4-0.7c0.8-1.2,1.1-2.5,1.7-3.7c0.7-1.5,2.4-2,3.7-3
			c0.5-0.3,1-0.6,0.4-1.2c-0.2-0.2-0.1-0.5,0-0.8c0.5-1.4,1-2.8,1.5-4.1C409.3,175,409.5,174.5,410.2,174.4z"/>
		<path class="st16" d="M386.6,192.7c1.3-0.9,2.6-1.8,4.2-2.5c0.1,0,0.3,0.1,0.4,0.1c-0.2,0.4,0.2,0.3,0.4,0.3c1.2,0,2.5,0,3.7,0
			c1.3,0,2.5,0,3.8,0c0,0,0-0.1,0-0.1c-0.1-0.1-0.3-0.1-0.4-0.2c0.3,0,0.6,0,0.9-0.1c1.3,1,2.7,1.9,4,3c-1.5,1-2.6,2.3-4.5,2.8
			c-3.6,1-6.8,0.6-9.7-1.7c-0.5-0.4-1-0.8-1.5-1.3C387.6,192.8,387.2,192.6,386.6,192.7z"/>
		<path class="st7" d="M374.8,194.7c1.1-1.1,1.4-2.7,2.4-3.9c0.8-1,1.3-2,2-3.1c0.7-1,1.2-1,2.2-0.3c1.3,1,2.2,2.2,2.8,3.6
			c0.3,0.7,0.9,1.3,1.5,1.9c-2,1.3-4,2.7-6.2,3.7C377.3,197.2,376.1,195.8,374.8,194.7z"/>
		<path class="st11" d="M422.4,150c1.5,1.1,2.9,2.3,4.4,3.4c-0.2,0.9-1.2,1.6-1.3,2.6c0,0.4-0.1,0.7-0.1,1.1c-0.9-0.7-1.7-1.3-2.6-2
			c-1-0.7-1.2-1.8-1.1-2.8c0.1-0.9,0.1-1.7,0.2-2.6C422.1,149.9,422.2,149.9,422.4,150z"/>
		<path class="st18" d="M422.4,150c-0.2-0.1-0.3-0.1-0.5-0.2c-0.1-0.2-0.3-0.4-0.4-0.6c1.3-2.4,2.5-4.9,3.8-7.4
			c0.3-0.1,0.5-0.1,0.8-0.2c-0.4,1.8-1.5,3.3-2.2,4.9C423.4,147.7,422.6,148.8,422.4,150z"/>
		<path class="st13" d="M341.9,170.8c0.8-0.4,1.5-0.8,2.3-1.2c1.6,1.8,2.4,4.1,3.4,6.2c1.3,2.6,2.5,5.1,4.2,7.5
			c0.4,0.6,0.8,1.1,0.2,1.8c-1.7,1.3-3.7,2.4-5.6,3.5c-1,0.6-2.2,0.6-3.2-0.1c-2.1-1.5-4.2-2.9-6.2-4.5c-1.5-1.1-3-2.3-4.7-3.2
			c0,0,0,0,0,0c-0.1-0.1-0.2-0.1-0.2-0.2c0,0,0,0,0,0c-0.1-0.1-0.2-0.1-0.2-0.2c0,0,0,0,0,0c-0.1-0.1-0.2-0.2-0.2-0.2
			c-0.3-0.7-1.3-1.3-0.9-2.2c3.2-2.3,6.7-4.2,10-6.3c0.2-0.1,0.3-0.2,0.4-0.3c0.1-0.1,0.1-0.1,0.2-0.2
			C341.6,170.9,341.7,170.8,341.9,170.8z"/>
		<path class="st16" d="M352,185c0.5-0.7,0.2-1.2-0.2-1.8c-1.7-2.4-2.9-4.9-4.2-7.5c-1.1-2.1-1.8-4.3-3.4-6.2
			c0.3-0.2,0.5-0.3,0.8-0.5c0.2,0,0.5,0,0.7,0c0.1,0,0.3,0,0.4,0c1.4,0.4,2.2,1.6,3.5,2.2c2.1,3.7,4.1,7.5,6,11.4
			C354.6,183.7,353.4,184.4,352,185z"/>
		<path class="st15" d="M356,183.5c0.1,0.1,0.2,0.3,0.3,0.4C356,183.9,356,183.7,356,183.5z"/>
		<path class="st15" d="M356,183.4c0,0,0.1,0.1,0.1,0.1C356,183.5,356,183.5,356,183.4C355.9,183.4,356,183.4,356,183.4z"/>
		<path class="st17" d="M346.2,165c-1.6,0-2.5-1.1-3.6-1.8c-3.6-2.6-7.2-5.2-10.7-7.8c-0.5-0.4-1-0.8-1.5-1.1
			c-0.4-0.4-0.1-0.8-0.2-1.2c1-0.5,2-1,2.8-1.6c1.2-0.7,2.3-1.3,3.5-2c0.5,1.1,1.5,1.9,2,3c0.9,1.8,2.2,3.5,2.9,5.4
			c0.2,0.5,0.5,0.8,1.1,0.7c0,0,0,0,0,0c0.1,0.6-0.5,1.6,1,1.6c0,0,0,0,0,0c0,0.2,0,0.4,0.2,0.4c0,0,0,0,0,0c0,0.2,0,0.4,0.3,0.4
			c0,0,0,0,0,0c0,0.2,0,0.4,0.2,0.4c0,0,0,0,0,0c0,0.2,0,0.3,0.2,0.4C345.1,162.8,345.7,163.9,346.2,165z"/>
		<path class="st7" d="M436.1,134.2c0.1-0.2,0.3-0.2,0.5-0.2C436.4,134.1,436.3,134.2,436.1,134.2z"/>
		<path class="st7" d="M436.5,134c0.1-0.1,0.1-0.1,0.2-0.2C436.7,133.8,436.6,133.9,436.5,134z"/>
		<path class="st7" d="M435.8,134.4c0.1-0.1,0.1-0.2,0.2-0.2C436,134.3,435.9,134.3,435.8,134.4z"/>
		<path class="st18" d="M426.1,141.7c0.1-0.3,0.4-0.4,0.7-0.4C426.8,141.7,426.4,141.7,426.1,141.7z"/>
		<path class="st18" d="M427,141.1c0.1-0.3,0.4-0.4,0.7-0.4C427.7,141.1,427.4,141.1,427,141.1z"/>
		<path class="st18" d="M426.8,141.3c0.1-0.1,0.2-0.1,0.2-0.2C426.9,141.1,426.8,141.2,426.8,141.3z"/>
		<path class="st18" d="M427.7,140.7c0.1-0.1,0.2-0.1,0.3-0.2C427.9,140.5,427.8,140.6,427.7,140.7z"/>
		<path class="st18" d="M427.9,140.5c0.1-0.1,0.2-0.1,0.2-0.2C428.1,140.4,428,140.4,427.9,140.5z"/>
		<path class="st18" d="M428.4,140.2c0.1-0.1,0.2-0.1,0.2-0.2C428.5,140.1,428.5,140.2,428.4,140.2z"/>
		<path class="st11" d="M342.6,158.5c-0.6,0.1-0.9-0.2-1.1-0.7c-0.7-1.9-2-3.6-2.9-5.4c-0.6-1.1-1.5-1.9-2-3
			c0.3-0.2,0.6-0.4,0.9-0.7C339.3,152,341,155.2,342.6,158.5z"/>
		<path class="st18" d="M370.3,107.8c0.1,0,0.1,0.1,0,0.1C370.3,107.9,370.3,107.8,370.3,107.8L370.3,107.8z"/>
		<path class="st17" d="M346.4,136.4c0-1.1,0.2-2.2-0.2-3.2c0.5-3.5-0.2-7.1,0-10.6c0.1-0.1,0.2-0.2,0.1-0.4c0.4,0,0.7,0.1,0.9,0.3
			c1.5,1.4,3.3,2.5,4.7,4c-1,0.1-1.9,0-2.9,0.2c-1,0.1-0.9,0.4-0.6,1c1.7,3.2,3.4,6.3,5,9.5c0,0.1,0,0.1,0,0.2c0,0.2,0,0.4,0.2,0.5
			c0.1,0,0.1,0.1,0,0.1c0.1,1.6,1,3,1,4.6c0,1.1,0.9,1.9,1.2,2.9c0.1,0.3,0.2,0.7-0.2,0.9c-0.4,0.3-0.6-0.1-0.9-0.3
			c-2.1-1.3-3.7-3-6-4.1c-0.9-1.6-1.8-3.3-2.7-4.9C346.4,136.9,346.4,136.7,346.4,136.4z"/>
		<path class="st9" d="M346.4,122.2c0,0.2,0,0.3-0.1,0.4c0-0.1,0-0.3,0-0.4C346.3,122.2,346.4,122.2,346.4,122.2z"/>
		<path class="st12" d="M332.1,180.5c0.1,0.1,0.2,0.1,0.2,0.2C332.2,180.6,332.2,180.6,332.1,180.5z"/>
		<path class="st12" d="M331.6,180.1c0.1,0.1,0.2,0.2,0.2,0.2C331.8,180.2,331.7,180.1,331.6,180.1z"/>
		<path class="st12" d="M331.8,180.3c0.1,0.1,0.2,0.1,0.2,0.2C332,180.4,331.9,180.4,331.8,180.3z"/>
		<path class="st19" d="M431.9,129.5c0.1-0.1,0.1-0.3,0.2-0.4C432,129.2,432,129.4,431.9,129.5z"/>
		<path class="st11" d="M349.2,142c2.2,1.1,3.9,2.8,6,4.1c0.3,0.2,0.5,0.6,0.9,0.3c0.4-0.2,0.3-0.6,0.2-0.9c-0.3-1-1.2-1.8-1.2-2.9
			c0-1.6-0.9-3-1-4.6c1.9,3,3.4,6.1,5.1,9.2c1.4,2.6,2.7,5.1,4.1,7.7c0.2,0.4,0.5,0.8,0.6,1.3c-1.9,0.9-3.7,2-5.4,3.2
			c-2.2-4.2-4.4-8.4-6.6-12.6C350.7,145.2,350,143.6,349.2,142z"/>
		<path class="st19" d="M405,150.4c0.2,0,0.4,0,0.7,0c-0.9,1.9-1.9,3.8-2.8,5.8c-1.4,2.9-3.3,5.6-4.4,8.7c-1.9,0.8-3.4,2-5.2,2.8
			c-1.8-2.6-2.2-5.3-0.7-8.1c2.3-4.5,4.6-9,6.9-13.5c0.5,0.5,1.2,0.7,1.6,1.3c-0.9,0-1.2,0.6-1.4,1.2c-0.6,1.8-1.3,3.6-1.9,5.5
			c-0.3,0.9-0.5,1.8-0.4,2.7c0.1,1.2,0.9,1.6,2.1,1.1c0.8-0.3,1.4-0.7,1.9-1.3C402.8,154.6,404,152.6,405,150.4z"/>
		<path class="st19" d="M358.2,159.4c1.7-1.2,3.4-2.3,5.4-3.2c1.2,2.1,2.4,4.2,3.2,6.5c0.4,1.2,0.2,2.3-0.3,3.5
			c-0.7,1.6-1.4,3.2-2.3,5C362.1,167.1,360.2,163.2,358.2,159.4z"/>
		<path class="st19" d="M384.1,177.5c-0.5,0-0.8-0.1-1-0.5c-1.1-1.6-4.1-1.9-5.6-0.5c-1.5,1.4-3.1,2.8-3.7,4.8
			c-0.1,0.5-0.3,1.1-1.1,1.1c1.2-2.8,2.7-5.6,4.1-8.3c0.6-1.3,1.3-2.7,2-4c0.2-0.3,0.3-0.7,0.7-0.7c0.4,0,0.6,0.4,0.8,0.7
			C381.6,172.5,382.8,175,384.1,177.5z"/>
		<path class="st12" d="M393.2,167.7c1.8-0.8,3.4-2.1,5.2-2.8c-1,2.1-2.1,4.2-3.2,6.6C394.3,170.1,393.7,168.9,393.2,167.7z"/>
		<path class="st19" d="M375.5,150.6c1.4,0.6,2.5,1.7,3.7,2.6c0.4,0.3,0.8,0.6,1.2,0.9c-0.4,0.8-0.8,1.6-1.1,2.4
			c-0.2,0.4-0.5,0.6-0.7,0.1C377.5,154.6,376.3,152.7,375.5,150.6z"/>
		<path class="st12" d="M398.7,190.4c0.1,0.1,0.3,0.1,0.4,0.2c0,0,0,0.1,0,0.1c-1.3,0-2.5,0-3.8,0c-1.2,0-2.5,0-3.7,0
			c-0.2,0-0.6,0.1-0.4-0.3C393.7,190.3,396.2,190.2,398.7,190.4z"/>
		<path class="st11" d="M343.5,160.1c-1.4,0-0.9-1-1-1.6C343,159,343.3,159.6,343.5,160.1z"/>
		<path class="st11" d="M353.9,137.8c-0.2-0.1-0.2-0.3-0.2-0.5C353.9,137.5,353.9,137.6,353.9,137.8z"/>
		<path class="st11" d="M343.7,160.6c-0.3-0.1-0.3-0.3-0.2-0.4C343.7,160.2,343.7,160.4,343.7,160.6z"/>
		<path class="st11" d="M344,161c-0.2-0.1-0.3-0.3-0.3-0.4C343.9,160.6,343.9,160.8,344,161z"/>
		<path class="st11" d="M344.2,161.4c-0.2-0.1-0.2-0.3-0.2-0.4C344.1,161.1,344.2,161.2,344.2,161.4z"/>
		<path class="st11" d="M344.4,161.8c-0.2-0.1-0.2-0.3-0.2-0.4C344.2,161.5,344.3,161.7,344.4,161.8z"/>
		<path class="st21" d="M405,150.4c-1,2.2-2.2,4.2-3.7,6.1c-0.5,0.6-1.1,1-1.9,1.3c-1.2,0.5-2,0.1-2.1-1.1c-0.1-0.9,0.1-1.8,0.4-2.7
			c0.6-1.8,1.3-3.7,1.9-5.5c0.2-0.6,0.5-1.2,1.4-1.2c0.9,0.7,1.8,1.4,2.7,2.1c0,0.2,0.2,0.4,0.5,0.4c0,0,0,0,0,0
			c0.1,0.1,0.2,0.1,0.2,0.2c0,0,0,0,0,0c0.1,0.1,0.2,0.1,0.2,0.2C404.8,150.3,404.9,150.3,405,150.4z"/>
		<path class="st19" d="M404.3,149.8c-0.3,0-0.4-0.1-0.5-0.4C404,149.5,404.2,149.6,404.3,149.8z"/>
		<path class="st19" d="M404.5,150c-0.1-0.1-0.2-0.1-0.2-0.2C404.3,149.9,404.4,150,404.5,150z"/>
		<path class="st19" d="M404.7,150.2c-0.1-0.1-0.2-0.1-0.2-0.2C404.6,150.1,404.7,150.1,404.7,150.2z"/>
		<path class="st12" d="M346.1,169.1c-0.1,0-0.3,0-0.4,0C345.8,169,345.9,169,346.1,169.1z"/>
		<path class="st19" d="M341.9,170.8c-0.2,0.1-0.3,0.2-0.5,0.2C341.5,170.8,341.7,170.8,341.9,170.8z"/>
	</g>
</g>
<g id="Layer_2">
</g>
</svg>
